<svg width="319" height="469" viewBox="0 0 319 469" fill="none" xmlns="http://www.w3.org/2000/svg">
<g clip-path="url(#clip0_676_4323)">
<path d="M281.978 32.1758L159.497 0.181885L37.0108 32.1758C25.7359 35.1135 16.4859 39.1104 10.0915 43.8077C3.69707 48.505 0.358333 53.7556 0.375069 59.088V409.92C0.357503 415.253 3.69585 420.504 10.0903 425.201C16.4848 429.899 25.7352 433.896 37.0108 436.834L159.497 468.82L281.983 436.826C293.259 433.888 302.509 429.891 308.904 425.193C315.298 420.496 318.636 415.245 318.619 409.912V59.0801C318.632 53.7488 315.291 48.4998 308.896 43.804C302.5 39.1081 293.251 35.1126 281.978 32.1758Z" stroke="#1A0D26" stroke-width="1.53" stroke-miterlimit="10"/>
</g>
<defs>
<clipPath id="clip0_676_4323">
<rect width="319" height="469" fill="white"/>
</clipPath>
</defs>
</svg>
