<svg width="1460" height="1149" viewBox="0 0 1460 1149" fill="none" xmlns="http://www.w3.org/2000/svg">
<g clip-path="url(#clip0_622_4108)">
<path d="M1453.94 775.118C1364.37 692.425 1251.62 634.601 1131.86 611.779C1122.9 610.067 1113.69 608.506 1104.79 606.993C1067.41 600.636 1028.77 594.078 995.812 574.911C957.914 552.883 931.39 516.482 905.753 481.302C886.855 455.368 867.311 428.55 843.175 407.204C790.2 360.368 719.597 342.835 651.318 325.879C614.909 316.838 577.254 307.486 542.41 293.792C408.189 241.08 308.416 119.601 227.991 19.6086L227.316 20.6841C273.69 78.262 316.551 129.915 365.139 176.355C398.909 208.626 432.388 235.166 466.213 256.397C491.191 272.076 516.357 284.856 541.963 294.92C576.889 308.636 614.58 317.994 651.022 327.028C719.173 343.954 789.611 361.441 842.36 408.078C866.415 429.345 885.895 456.094 904.759 481.974C929.401 515.795 954.841 550.71 990.485 573.077C992.034 574.05 993.607 575.003 995.193 575.925C1028.35 595.208 1067.1 601.786 1104.58 608.155C1113.48 609.667 1122.68 611.229 1131.62 612.929C1251.25 635.753 1363.85 693.541 1453.29 776.153L1453.94 775.118Z" fill="#2F135B"/>
<path d="M1450.67 780.328C1434.05 765.438 1416.79 751.124 1398.87 737.387C1352.95 702.123 1305.34 673.088 1257.38 651.089C1214.05 631.214 1170.78 617.382 1128.8 609.984C1125.19 609.341 1121.45 608.713 1117.35 608.059C1110.97 607.016 1104.46 606.026 1098.14 605.048C1061.63 599.457 1023.89 593.655 991.401 576.276C971.046 565.368 952.602 550.077 935.042 529.542C921.819 514.069 909.73 496.645 898.036 479.792C880.427 454.422 862.221 428.189 839.46 407.416C797.62 369.069 743.282 352.158 690.787 339.608C677.078 336.33 662.97 333.227 649.331 330.226C611.104 321.815 571.567 313.116 535.229 299.382C527.557 296.481 520.189 293.412 513.334 290.267C480.149 275.049 447.436 253.834 413.333 225.409C381.989 199.277 352.846 169.837 326 141.957C295.875 110.497 266.629 77.9531 238.343 46.4717L222.316 28.6486L221.651 29.7078C226.897 35.5258 232.158 41.382 237.435 47.2765C265.732 78.7589 294.992 111.317 325.122 142.786C351.983 170.715 381.17 200.166 412.554 226.334C431.531 242.147 450.062 255.727 468.495 267.297C482.735 276.279 497.546 284.32 512.835 291.369C519.701 294.542 527.109 297.602 534.805 300.508C571.226 314.282 610.806 322.985 649.078 331.407C662.712 334.406 676.814 337.51 690.512 340.786C742.842 353.302 797.005 370.148 838.645 408.308C861.304 428.982 879.47 455.161 897.05 480.485C908.76 497.359 920.852 514.797 934.127 530.331C951.767 550.983 970.342 566.38 990.842 577.356C1023.5 594.85 1061.36 600.651 1097.95 606.252C1104.26 607.219 1110.78 608.216 1117.15 609.258C1121.25 609.91 1124.98 610.539 1128.58 611.184C1170.47 618.563 1213.63 632.362 1256.87 652.193C1304.75 674.152 1352.27 703.136 1398.13 738.349C1416.06 752.092 1433.35 766.432 1450.01 781.369L1450.67 780.328Z" fill="#2F135B"/>
<path d="M1447.41 785.518C1429.86 770.286 1411.97 755.545 1394 741.554C1345.23 703.462 1299.55 674.001 1254.35 651.479C1209.45 629.108 1167.39 614.953 1125.73 608.193C1121.71 607.523 1117.64 606.922 1114.14 606.408C1107.15 605.386 1099.98 604.422 1093.06 603.489C1056.86 598.617 1019.43 593.579 986.992 577.642C965.252 566.961 946.444 552.151 929.479 532.365C915.463 515.997 902.995 497.119 890.933 478.865C874.419 453.865 857.342 428.017 835.762 407.611C794.667 368.754 739.159 353.022 685.293 341.815C672.644 339.179 659.646 336.683 647.061 334.287C607.104 326.618 565.774 318.679 528.056 304.96C519.922 302.001 512.655 299.041 505.847 295.903C473.201 280.892 441.758 259.487 406.891 228.549C381.158 205.712 356.449 180.224 332.55 155.575C328.469 151.369 324.387 147.166 320.307 142.965C311.709 134.139 303.143 125.319 294.609 116.505C267.736 88.7676 242.16 62.3947 216.857 37.3464L216.203 38.3894C241.434 63.3703 266.944 89.6784 293.75 117.323C302.286 126.115 310.853 134.936 319.452 143.786C323.533 147.98 327.613 152.182 331.691 156.393C355.603 181.056 380.33 206.561 406.099 229.431C427.735 248.629 448.06 264.163 468.18 276.793C480.126 284.325 492.55 291.072 505.373 296.992C512.21 300.148 519.51 303.117 527.672 306.087C565.504 319.85 606.86 327.783 646.867 335.471C659.438 337.881 672.432 340.375 685.071 343.01C747.115 355.921 796.347 372.001 834.95 408.498C856.433 428.797 873.456 454.595 889.939 479.537C902.019 497.824 914.513 516.735 928.579 533.157C945.65 553.073 964.589 567.981 986.482 578.742C1019.1 594.767 1056.63 599.817 1092.93 604.701C1099.85 605.638 1107.01 606.597 1114 607.623C1117.5 608.118 1121.55 608.735 1125.56 609.4C1167.1 616.139 1209.06 630.265 1253.83 652.574C1298.95 675.058 1344.57 704.478 1393.28 742.515C1411.28 756.53 1429.2 771.311 1446.78 786.57L1447.41 785.518Z" fill="#2F135B"/>
<path d="M1444.21 790.619C1425.41 774.845 1407 759.879 1389.12 745.722C1336.08 703.598 1293.57 674.65 1251.33 651.88C1206.26 627.562 1164.16 612.704 1122.67 606.413C1118.42 605.763 1114.17 605.194 1110.95 604.774C1103.03 603.73 1094.9 602.78 1087.04 601.865C1051.46 597.71 1014.69 593.423 982.601 579.02C960.014 569.004 939.972 554.035 923.953 535.217C909.298 518.153 896.638 497.973 884.391 478.462C868.82 453.656 852.717 427.999 832.093 407.84C793.998 370.606 743.675 355.415 679.818 344.063C668.139 341.986 656.153 339.999 644.544 338.108C602.934 331.265 559.916 324.174 520.921 310.556C512.509 307.616 505.142 304.673 498.406 301.535C466.553 286.851 435.446 264.657 400.498 231.691C381.886 214.131 363.695 195.052 346.123 176.611C335.846 165.827 325.216 154.674 314.632 143.953C276.068 104.918 242.21 72.6258 211.61 45.7063L210.96 46.7411C241.5 73.6116 275.293 105.863 313.771 144.781C324.348 155.486 334.987 166.617 345.248 177.419C362.833 195.874 381.013 214.952 399.635 232.524C423.118 254.647 444.859 271.962 466.272 285.403C476.425 291.806 486.981 297.548 497.873 302.592C504.658 305.715 512.072 308.665 520.523 311.652C559.609 325.322 602.701 332.413 644.351 339.253C655.946 341.159 667.943 343.129 679.616 345.208C743.233 356.534 793.359 371.659 831.228 408.667C851.751 428.727 867.801 454.34 883.347 479.068C895.617 498.616 908.303 518.835 923.008 535.964C939.15 554.924 959.347 570.006 982.107 580.096C1014.35 594.568 1051.24 598.874 1086.9 603.043C1094.76 603.959 1102.89 604.909 1110.8 605.949C1114.02 606.37 1118.25 606.938 1122.49 607.584C1163.85 613.858 1205.8 628.685 1250.75 652.915C1292.95 675.664 1335.39 704.571 1388.38 746.656C1406.3 760.816 1424.73 775.844 1443.58 791.636L1444.21 790.619Z" fill="#2F135B"/>
<path d="M1441.04 795.663C1435.61 791.285 1430.13 786.867 1424.61 782.409C1411.23 771.61 1397.74 760.726 1384.24 749.891C1344.42 717.741 1297.78 681.037 1248.28 652.234C1202.38 625.567 1161.49 610.429 1119.58 604.586C1115.32 603.989 1111.01 603.475 1107.73 603.092C1098.84 602.054 1089.68 601.142 1080.85 600.278C1045.93 596.823 1009.83 593.259 978.172 580.352C953.993 570.497 934.423 556.64 918.346 538.002C903.163 520.362 890.437 498.994 878.151 478.345C863.416 453.597 848.176 428.011 828.367 408.007C786.741 365.977 727.026 354.051 674.311 346.229C663.511 344.618 652.418 343.096 641.692 341.622C598.525 335.699 553.893 329.571 513.742 316.08C505.969 313.518 498.343 310.53 490.899 307.131C450.336 288.372 417.83 258.62 394.051 234.801C379.818 220.54 365.76 205.287 352.168 190.537C338.169 175.344 323.685 159.631 308.975 144.957C274.417 110.51 239.371 79.3061 206.577 53.7241L205.927 54.7589C238.643 80.2858 273.62 111.446 308.086 145.813C322.776 160.474 337.25 176.176 351.244 191.36C364.831 206.135 378.908 221.377 393.148 235.654C411.353 253.862 434.592 275.525 462.644 293.133C471.549 298.754 480.802 303.804 490.349 308.251C497.834 311.666 505.501 314.67 513.315 317.248C553.564 330.773 598.268 336.912 641.49 342.847C652.212 344.318 663.298 345.842 674.096 347.446C726.601 355.26 786.086 367.094 827.46 408.874C847.161 428.771 862.362 454.293 877.06 478.972C889.392 499.684 902.145 521.097 917.403 538.818C933.609 557.611 953.321 571.586 977.692 581.505C1009.51 594.481 1045.7 598.069 1080.72 601.512C1089.55 602.389 1098.69 603.29 1107.57 604.327C1110.86 604.687 1115.14 605.225 1119.4 605.819C1161.14 611.638 1201.89 626.729 1247.64 653.313C1297.06 682.026 1343.68 718.704 1383.45 750.839C1396.95 761.674 1410.44 772.558 1423.82 783.358L1440.37 796.709L1441.04 795.663Z" fill="#2F135B"/>
<path d="M1437.91 800.649C1419.89 786.715 1400.48 771.273 1379.36 754.059C1373.57 749.288 1367.79 744.519 1362 739.751C1324.84 709.041 1286.41 677.272 1245.23 652.655C1210.11 631.649 1167.34 609.306 1116.51 602.823C1112.31 602.297 1108.06 601.832 1104.52 601.473C1094.63 600.461 1084.43 599.657 1074.59 598.845C1040.34 596.093 1004.95 593.233 973.755 581.754C948.471 572.449 928.53 559.075 912.781 540.864C897.148 522.748 884.431 500.256 872.182 478.528C858.195 453.762 843.733 428.146 824.637 408.233C783.637 365.46 722.694 354.955 668.79 348.46C658.764 347.278 648.492 346.118 638.551 345.018C593.915 340.08 547.759 334.973 506.548 321.673C498.653 319.186 490.92 316.216 483.392 312.778C443.721 294.379 412.692 264.63 387.555 237.936C376.256 225.926 365.023 213.224 354.16 200.942C337.81 182.433 320.863 163.277 303.264 145.955C270.222 113.482 235.517 84.588 201.777 61.371L201.137 62.3895C234.808 85.5631 269.444 114.396 302.411 146.817C320.003 164.106 336.913 183.239 353.278 201.734C364.146 214.025 375.387 226.732 386.706 238.766C406.448 259.734 429.829 282.599 458.202 300.408C466.143 305.41 474.393 309.905 482.901 313.867C490.475 317.32 498.253 320.305 506.193 322.807C547.521 336.147 593.741 341.26 638.445 346.189C648.373 347.31 658.66 348.428 668.67 349.634C722.376 356.085 783.061 366.558 823.778 409.033C842.769 428.842 857.193 454.383 871.141 479.084C883.44 500.877 896.163 523.413 911.883 541.617C927.769 559.989 947.876 573.478 973.362 582.859C1004.71 594.397 1040.2 597.26 1074.52 600.022C1084.37 600.815 1094.55 601.637 1104.42 602.652C1107.97 603.014 1112.17 603.462 1116.38 603.999C1167 610.45 1209.61 632.72 1244.62 653.662C1285.73 678.236 1324.12 709.965 1361.24 740.65C1367.03 745.42 1372.82 750.191 1378.62 754.963C1399.78 772.222 1419.23 787.69 1437.29 801.648L1437.91 800.649Z" fill="#2F135B"/>
<path d="M1434.79 805.62C1415.47 791.356 1395.37 775.559 1374.49 758.227C1365.14 750.47 1355.71 742.504 1346.58 734.801C1313.1 706.53 1278.47 677.283 1242.21 653.043C1196.43 622.434 1155.51 605.9 1113.45 601.027C1109.22 600.538 1104.94 600.138 1101.31 599.821C1090.42 598.856 1079.13 598.142 1068.22 597.463C1034.69 595.375 1000 593.22 969.335 583.098C942.639 574.292 922.901 561.767 907.206 543.669C891.181 525.148 878.594 501.618 866.413 478.878C853.116 454.016 839.376 428.315 820.907 408.424C780.495 364.885 718.346 355.788 663.267 350.667C653.95 349.8 644.386 348.993 635.141 348.211C589.126 344.315 541.533 340.305 499.356 327.234C491.337 324.831 483.494 321.877 475.882 318.395C436.738 300.203 406.011 269.097 381.112 241.077C371.919 230.723 362.737 219.854 353.849 209.346C335.912 188.12 317.364 166.17 297.545 146.966C265.606 115.986 231.311 89.2574 197.219 68.6312L196.58 69.6497C230.609 90.231 264.822 116.902 296.724 147.842C316.497 167 335.028 188.923 352.951 210.128C361.835 220.64 371.025 231.514 380.226 241.883C400.375 264.56 424.33 289.245 453.488 307.547C460.534 311.986 467.851 315.98 475.396 319.504C483.059 323.008 490.954 325.981 499.026 328.401C541.341 341.496 589.004 345.529 635.081 349.417C644.322 350.197 653.885 350.997 663.192 351.87C718.047 356.968 779.922 366.025 820.047 409.242C838.41 429.014 852.113 454.647 865.373 479.434C877.574 502.25 890.193 525.846 906.308 544.468C922.157 562.736 942.068 575.382 968.98 584.26C999.802 594.43 1034.56 596.588 1068.17 598.677C1079.08 599.36 1090.33 600.055 1101.21 601.015C1104.83 601.335 1109.09 601.729 1113.31 602.22C1155.18 607.069 1195.91 623.526 1241.53 654.036C1277.73 678.244 1312.34 707.461 1345.8 735.71C1354.93 743.416 1364.36 751.382 1373.71 759.145C1394.61 776.508 1414.76 792.339 1434.14 806.638L1434.79 805.62Z" fill="#2F135B"/>
<path d="M1431.72 810.509C1411.59 796.357 1390.89 780.32 1369.61 762.399C1356.03 750.938 1342.44 739.016 1329.31 727.486C1300.34 702.043 1270.39 675.732 1239.17 653.431C1193.62 620.865 1152.69 603.656 1110.38 599.237C1106.1 598.785 1101.77 598.446 1098.11 598.173C1086.2 597.289 1073.81 596.741 1061.84 596.219C1029.01 594.787 995.083 593.318 964.929 584.477C937.23 576.365 917.12 564.299 901.647 546.505C885.283 527.647 872.869 503.112 860.858 479.388C848.215 454.386 835.119 428.526 817.218 408.624C777.338 364.283 716.588 356.767 657.797 352.855C649.096 352.272 640.175 351.75 631.548 351.247C584.215 348.456 535.274 345.576 492.212 332.784C482.853 329.999 475.306 327.215 468.423 323.997C429.805 306.004 400.565 275.003 374.715 244.165C367.099 235.08 359.466 225.609 352.084 216.449C333.103 192.887 313.468 168.523 291.903 147.922C261.303 118.754 226.935 93.7285 192.85 75.5936L192.211 76.6121C226.223 94.7011 260.523 119.672 291.056 148.838C312.566 169.382 332.169 193.715 351.13 217.247C358.508 226.422 366.151 235.887 373.772 244.981C395.054 270.34 418.631 295.827 447.84 314.155C454.298 318.223 461.004 321.884 467.918 325.117C474.857 328.337 482.456 331.164 491.879 333.966C535.074 346.796 584.091 349.684 631.485 352.474C640.114 352.984 649.033 353.51 657.729 354.085C716.285 357.963 776.759 365.43 816.332 409.431C834.132 429.196 847.174 454.988 859.781 479.939C871.822 503.733 884.273 528.336 900.737 547.314C916.373 565.289 936.666 577.471 964.604 585.653C994.866 594.522 1028.89 596.004 1061.79 597.437C1073.75 597.961 1086.11 598.508 1098.03 599.388C1101.67 599.662 1105.99 600.002 1110.25 600.447C1152.35 604.843 1193.08 621.988 1238.46 654.42C1269.62 676.689 1299.55 702.989 1328.51 728.393C1341.66 739.939 1355.22 751.858 1368.81 763.343C1390.13 781.294 1410.89 797.355 1431.08 811.527L1431.72 810.509Z" fill="#2F135B"/>
<path d="M1428.73 815.272C1406.44 800.343 1385.06 784.081 1364.72 766.573C1348.01 752.264 1331.52 737.115 1315.56 722.468C1290 699.006 1263.58 674.742 1236.13 653.834C1190.24 618.881 1150.54 601.498 1107.31 597.451C1102.95 597.044 1098.59 596.76 1094.9 596.534C1081.94 595.741 1068.41 595.395 1055.37 595.081C1023.26 594.288 990.075 593.469 960.527 585.866C931.86 578.492 911.381 566.887 896.089 549.355C879.437 530.191 867.231 504.691 855.425 480.045C843.358 454.865 830.914 428.807 813.502 408.865C774.118 363.699 712.272 357.54 652.282 355.124C644.123 354.796 635.916 354.503 627.661 354.243C579.101 352.596 528.885 350.897 485.025 338.411C475.491 335.697 467.83 332.922 460.922 329.682C422.664 311.802 393.762 279.576 368.239 247.376C361.855 239.319 355.429 230.947 349.223 222.849C329.547 197.198 309.205 170.675 286.195 149.008C256.415 120.979 222.671 97.9411 188.741 82.1585L188.097 83.1852C221.959 98.903 255.647 121.888 285.373 149.866C308.32 171.471 328.635 197.955 348.279 223.568C354.489 231.669 360.924 240.024 367.306 248.114C388.734 275.119 412.528 302.174 442.254 320.833C448.102 324.514 454.172 327.831 460.429 330.764C467.402 334.039 475.118 336.832 484.72 339.565C528.72 352.089 579.014 353.791 627.646 355.449C635.884 355.724 644.101 356.004 652.26 356.332C711.961 358.731 773.552 364.843 812.611 409.652C829.889 429.481 842.318 455.456 854.339 480.573C866.173 505.311 878.408 530.891 895.179 550.164C910.645 567.896 931.322 579.62 960.257 587.037C989.927 594.671 1023.2 595.496 1055.37 596.293C1068.43 596.619 1081.92 596.951 1094.86 597.746C1098.54 597.971 1102.89 598.246 1107.22 598.659C1150.19 602.675 1189.73 619.985 1235.42 654.796C1262.82 675.674 1289.22 699.925 1314.77 723.347C1330.73 737.999 1347.24 753.15 1363.97 767.479C1384.34 785.027 1405.76 801.327 1428.1 816.29L1428.73 815.272Z" fill="#2F135B"/>
<path d="M1425.76 820.014C1403.84 806.254 1381.72 789.75 1359.85 770.733C1340.75 754.13 1322.17 736.233 1304.19 718.931C1281.3 696.895 1257.63 674.104 1233.09 654.217C1187.58 617.317 1147.84 599.255 1104.24 595.651C1099.85 595.291 1095.43 595.058 1091.69 594.875C1077.7 594.207 1063.06 594.121 1048.9 594.04C1017.51 593.859 985.057 593.67 956.118 587.227C926.117 580.544 905.892 569.734 890.523 552.171C873.595 532.76 861.647 506.326 850.093 480.764C838.61 455.349 826.718 429.087 809.828 409.046C770.936 362.997 707.97 358.242 646.815 357.321C639.123 357.207 631.389 357.119 623.614 357.058C573.885 356.597 522.464 356.113 477.886 343.959C468.206 341.325 460.436 338.561 453.464 335.286C415.501 317.488 386.987 284.012 361.821 250.503C356.414 243.281 350.96 235.809 345.691 228.583C325.589 201.018 304.78 172.503 280.535 150.004C251.532 123.088 218.49 101.882 184.876 88.2965L184.226 89.3312C217.771 102.856 250.759 124.011 279.694 150.857C303.867 173.282 324.629 201.744 344.704 229.27C349.977 236.498 355.439 243.958 360.844 251.202C382.307 279.803 406.209 308.373 436.367 327.303C441.703 330.659 447.239 333.686 452.944 336.368C459.977 339.681 467.815 342.471 477.565 345.121C522.303 357.3 573.785 357.812 623.605 358.256C631.367 358.332 639.097 358.419 646.795 358.518C707.668 359.438 770.327 364.148 808.89 409.809C825.695 429.706 837.539 455.909 848.994 481.25C860.581 506.895 872.569 533.411 889.615 552.959C905.16 570.729 925.591 581.662 955.87 588.407C984.938 594.879 1017.46 595.068 1048.91 595.25C1063.05 595.332 1077.7 595.423 1091.65 596.08C1095.38 596.262 1099.78 596.492 1104.15 596.854C1147.49 600.437 1187.02 618.415 1232.33 655.16C1256.82 675.015 1280.47 697.783 1303.34 719.806C1321.33 737.119 1339.93 755.027 1359.05 771.652C1380.97 790.707 1403.12 807.265 1425.1 821.061L1425.76 820.014Z" fill="#2F135B"/>
<path d="M1422.82 824.686C1396.16 808.946 1373 790.81 1354.97 774.9C1334.01 756.399 1313.92 736.069 1294.48 716.425C1273.72 695.443 1252.27 673.732 1230.06 654.611C1199.69 628.461 1157.6 597.929 1101.17 593.86C1096.74 593.541 1092.26 593.38 1088.49 593.229C1073.47 592.71 1057.69 592.922 1042.42 593.127C1011.75 593.534 980.04 593.962 951.713 588.602C920.812 582.756 900.206 572.383 884.96 555.005C867.811 535.375 856.132 508.026 844.864 481.564C833.918 455.89 822.592 429.341 806.115 409.22C767.676 362.267 703.626 358.916 641.313 359.506C634.028 359.573 626.69 359.681 619.33 359.786C568.494 360.555 515.939 361.318 470.705 349.532C460.854 346.96 452.994 344.224 445.963 340.907C406.361 322.308 378.433 286.093 355.388 253.637C350.77 247.126 346.11 240.43 341.611 233.909C321.248 204.539 300.192 174.171 274.849 151.001C247.097 125.63 214.368 105.939 181.191 94.212L180.537 95.2549C213.647 106.917 246.335 126.555 274.036 151.881C299.275 174.964 320.29 205.272 340.625 234.568C345.132 241.066 349.792 247.79 354.412 254.308C374.441 282.503 398.12 313.506 429.957 333.49C434.95 336.629 440.129 339.465 445.465 341.98C452.566 345.33 460.495 348.092 470.42 350.681C515.813 362.511 568.455 361.746 619.359 361.003C626.719 360.898 634.054 360.788 641.338 360.72C703.352 360.13 767.085 363.452 805.184 409.981C821.543 429.966 832.833 456.436 843.75 482.029C855.065 508.56 866.766 535.992 884.062 555.776C899.5 573.371 920.283 583.844 951.508 589.768C979.97 595.139 1011.73 594.731 1042.46 594.317C1057.71 594.113 1073.48 593.912 1088.47 594.419C1092.24 594.553 1096.69 594.729 1101.11 595.049C1157.18 599.092 1199.07 629.488 1229.28 655.504C1251.46 674.598 1272.9 696.28 1293.64 717.25C1313.08 736.92 1333.19 757.255 1354.19 775.788C1372.25 791.734 1395.47 809.91 1422.2 825.695L1422.82 824.686Z" fill="#2F135B"/>
<path d="M1419.94 829.274C1392.23 813.984 1368.43 795.482 1350.1 779.057C1327.65 758.945 1306.47 736.424 1285.99 714.642C1267 694.437 1247.35 673.548 1227.03 654.991C1196.97 627.543 1155.15 595.585 1098.11 592.058C1093.61 591.778 1089.11 591.655 1085.29 591.573C1069.26 591.224 1052.33 591.779 1035.96 592.314C1006 593.301 975.016 594.325 947.319 589.974C915.511 584.979 894.57 575.066 879.413 557.834C862.026 537.999 850.683 509.77 839.706 482.475C829.276 456.522 818.487 429.685 802.419 409.445C764.414 361.567 699.278 359.63 635.824 361.747C628.879 361.977 621.895 362.231 614.871 362.509C563.008 364.479 509.377 366.515 463.55 355.105C453.557 352.616 445.596 349.896 438.496 346.535C399.077 327.977 371.605 290.459 348.942 256.754C344.976 250.857 340.974 244.773 337.103 238.896C316.618 207.825 295.453 175.696 269.145 151.988C242.194 127.688 210.342 109.643 177.738 99.6672L177.075 100.722C209.613 110.623 241.427 128.621 268.329 152.89C294.516 176.494 315.638 208.555 336.062 239.56C339.937 245.44 343.946 251.523 347.911 257.43C367.819 287.037 391.429 319.576 423.614 339.772C428.23 342.678 433.017 345.303 437.948 347.634C445.135 351.009 453.159 353.774 463.229 356.284C509.227 367.738 562.945 365.7 614.896 363.723C621.907 363.461 628.898 363.193 635.843 362.963C698.982 360.859 763.778 362.77 801.43 410.199C817.389 430.297 828.125 457.055 838.538 482.9C849.551 510.291 860.936 538.615 878.465 558.614C893.82 576.072 915.001 586.09 947.1 591.154C974.926 595.524 1005.97 594.505 1035.98 593.523C1052.33 592.997 1069.25 592.434 1085.24 592.78C1089.04 592.863 1093.53 592.985 1098.01 593.263C1154.67 596.766 1196.27 628.568 1226.18 655.873C1246.47 674.4 1266.1 695.275 1285.08 715.463C1305.57 737.262 1326.77 759.806 1349.26 779.954C1367.64 796.414 1391.48 814.972 1419.27 830.293L1419.94 829.274Z" fill="#2F135B"/>
<path d="M1417.2 833.638C1392.49 821.052 1368.16 804.106 1345.21 783.237C1321.55 761.73 1299.62 737.181 1278.39 713.465C1260.86 693.838 1242.72 673.552 1223.96 655.416C1194.23 626.669 1152.7 593.291 1095.02 590.296C1090.39 590.06 1085.67 589.992 1082.07 589.958C1065.05 589.802 1046.97 590.749 1029.5 591.662C1000.25 593.177 969.985 594.774 942.88 591.368C909.785 587.212 889.115 578.032 873.821 560.685C856.233 540.673 845.226 511.575 834.573 483.439C824.636 457.188 814.363 430.045 798.695 409.681C761.107 360.849 694.905 360.339 630.313 363.991C623.66 364.358 616.962 364.757 610.219 365.189C557.37 368.369 502.733 371.682 456.361 360.68C446.209 358.283 438.157 355.563 431.002 352.145C391.748 333.605 364.734 294.796 342.493 259.868C339.067 254.492 335.674 249.063 332.281 243.634C311.806 210.95 290.632 177.129 263.46 152.992C237.322 129.77 206.426 113.217 174.518 104.797L173.848 105.864C205.697 114.208 236.555 130.703 262.653 153.888C289.707 177.917 310.832 211.661 331.238 244.285C334.631 249.714 338.024 255.143 341.447 260.524C361.185 291.512 384.666 325.548 417.149 345.937C421.439 348.637 425.887 351.078 430.469 353.247C437.725 356.666 445.864 359.418 456.083 361.846C502.636 372.893 557.36 369.578 610.292 366.354C617.018 365.949 623.715 365.553 630.382 365.164C694.657 361.529 760.51 362.025 797.731 410.377C813.306 430.608 823.549 457.664 833.451 483.836C844.137 512.073 855.2 541.28 872.936 561.436C888.449 579.022 909.333 588.32 942.767 592.524C969.976 595.944 1000.29 594.36 1029.6 592.827C1047.06 591.915 1065.11 590.969 1082.09 591.131C1085.68 591.164 1090.39 591.228 1094.99 591.471C1152.26 594.442 1193.56 627.645 1223.15 656.242C1241.87 674.345 1259.98 694.62 1277.51 714.221C1298.72 737.993 1320.69 762.576 1344.4 784.129C1367.4 805.045 1391.78 822.032 1416.56 834.664L1417.2 833.638Z" fill="#2F135B"/>
<path d="M1414.43 838.066C1388.8 826.033 1363.75 808.998 1340.34 787.409C1315.69 764.668 1293.24 738.229 1271.52 712.652C1255.23 693.464 1238.38 673.617 1220.94 655.787C1191.55 625.744 1150.33 590.939 1091.98 588.471C1087.3 588.278 1082.53 588.263 1078.89 588.277C1060.89 588.341 1041.71 589.72 1023.14 591.05C994.553 593.105 964.98 595.22 938.499 592.706C914.534 590.419 887.453 585.16 868.283 563.478C850.513 543.305 839.856 513.36 829.546 484.399C820.092 457.827 810.32 430.356 794.996 409.834C757.812 360.041 690.545 360.957 624.826 366.162C618.403 366.673 611.942 367.203 605.444 367.751C551.666 372.222 496.059 376.845 449.207 366.229C438.924 363.903 430.762 361.216 423.521 357.773C384.382 339.265 358.841 300.818 336.035 263.026C333.071 258.117 330.124 253.182 327.194 248.219C306.822 213.942 285.764 178.485 257.764 153.987C232.476 131.85 202.6 116.669 171.512 109.587L170.834 110.667C201.878 117.658 231.717 132.788 256.982 154.899C284.826 179.276 305.841 214.639 326.163 248.833C329.101 253.782 332.048 258.719 335.001 263.643C355.329 297.331 377.82 331.535 410.2 351.854C414.324 354.448 418.598 356.795 423 358.883C430.333 362.35 438.565 365.08 448.941 367.43C495.979 378.084 551.711 373.442 605.551 368.971C612.037 368.43 618.497 367.902 624.93 367.386C690.304 362.208 757.218 361.258 794.02 410.567C809.227 430.942 818.976 458.324 828.398 484.809C838.744 513.877 849.441 543.938 867.367 564.288C886.827 586.294 914.19 591.617 938.39 593.927C964.99 596.459 994.598 594.332 1023.23 592.273C1041.77 590.94 1060.95 589.562 1078.9 589.501C1082.52 589.499 1087.28 589.503 1091.93 589.696C1149.86 592.131 1190.85 626.746 1220.08 656.627C1237.49 674.421 1254.32 694.251 1270.61 713.427C1292.34 739.031 1314.82 765.502 1339.52 788.29C1353.66 801.405 1368.98 813.186 1385.28 823.485C1394.46 829.26 1403.97 834.476 1413.78 839.103L1414.43 838.066Z" fill="#2F135B"/>
<path d="M1411.7 842.4C1385.13 831.005 1359.32 813.907 1335.46 791.577C1309.99 767.742 1287.21 739.505 1265.19 712.197C1249.96 693.316 1234.21 673.794 1217.9 656.179C1188.87 624.836 1147.97 588.612 1088.9 586.697C1084.13 586.544 1079.33 586.592 1075.67 586.645C1056.74 586.942 1036.43 588.801 1016.8 590.582C988.873 593.141 960.002 595.782 934.089 594.079C909.539 592.463 881.861 587.902 862.712 566.313C844.773 546.001 834.486 515.215 824.542 485.444C815.557 458.542 806.263 430.724 791.284 410.049C774.779 387.263 750.565 373.473 717.263 367.886C686.508 362.711 652.027 365.079 619.325 368.388C613.089 369.017 606.821 369.672 600.523 370.353C545.864 376.093 489.345 382.024 442.048 371.827C431.62 369.581 423.356 366.91 416.042 363.421C376.989 344.893 351.917 305.213 329.588 266.163C327.034 261.679 324.483 257.172 321.935 252.642C301.729 216.828 280.832 179.796 252.091 154.998C228.223 134.464 199.469 120.429 168.591 114.24L167.906 115.332C198.744 121.438 227.467 135.421 251.288 155.925C279.868 180.582 300.709 217.523 320.866 253.243C323.416 257.771 325.97 262.279 328.527 266.77C348.584 301.854 370.867 337.456 403.491 357.928C407.359 360.363 411.367 362.566 415.496 364.526C422.918 368.049 431.246 370.754 441.767 373.025C489.25 383.259 545.871 377.319 600.626 371.57C606.924 370.908 613.191 370.253 619.427 369.605C685.907 362.874 753.865 360.505 790.25 410.757C805.131 431.291 814.373 459.002 823.339 485.825C833.324 515.712 843.649 546.619 861.755 567.115C881.198 589.048 909.168 593.667 933.963 595.3C959.978 597.011 988.9 594.362 1016.87 591.801C1036.48 590.005 1056.77 588.149 1075.66 587.854C1079.3 587.794 1084.09 587.747 1088.83 587.902C1147.45 589.806 1188.1 625.826 1216.98 656.98C1233.25 674.576 1248.99 694.064 1264.21 712.93C1286.26 740.271 1309.06 768.54 1334.6 792.434C1358.51 814.827 1384.37 831.958 1411.02 843.419L1411.7 842.4Z" fill="#2F135B"/>
<path d="M1409.04 846.645C1381.48 835.95 1354.91 818.839 1330.58 795.742C1304.42 770.914 1281.48 740.97 1259.29 712.013C1244.99 693.343 1230.19 674.044 1214.86 656.571C1186.2 623.933 1145.63 586.28 1085.83 584.906C1082.05 584.808 1077.93 584.85 1072.47 584.997C1052.62 585.55 1031.22 587.934 1010.52 590.233C983.238 593.272 955.021 596.415 929.672 595.474C904.544 594.535 876.274 590.682 857.143 569.155C839.045 548.709 829.143 517.102 819.581 486.515C811.05 459.268 802.229 431.093 787.58 410.245C771.261 387.019 746.931 373.241 713.214 368.109C682.08 363.384 647.059 366.504 613.845 370.582C607.748 371.332 601.618 372.1 595.455 372.884C539.935 379.925 482.547 387.167 434.857 377.399C424.309 375.243 415.933 372.58 408.532 369.048C369.573 350.517 344.974 309.594 323.145 269.297C320.935 265.18 318.716 261.054 316.491 256.92C296.505 219.608 275.841 181.031 246.392 155.998C223.416 136.522 195.646 123.556 165.955 118.44L165.267 119.536C194.929 124.555 222.683 137.465 245.624 156.913C274.89 181.796 295.499 220.272 315.43 257.481C317.649 261.614 319.865 265.739 322.08 269.856C341.842 306.322 363.84 343.272 396.729 363.917C400.366 366.211 404.132 368.293 408.01 370.151C415.506 373.72 423.955 376.412 434.614 378.598C482.502 388.405 539.999 381.14 595.592 374.129C601.746 373.354 607.874 372.587 613.976 371.828C681.563 363.531 750.569 359.708 786.579 410.946C801.119 431.635 809.91 459.721 818.412 486.878C828.043 517.581 837.963 549.313 856.237 569.949C860.51 574.757 865.448 578.929 870.901 582.34C888.61 593.456 910.072 595.949 929.643 596.677C955.079 597.621 983.338 594.477 1010.67 591.433C1031.34 589.136 1052.71 586.756 1072.51 586.203C1077.95 586.055 1082.06 586.025 1085.82 586.112C1145.16 587.485 1185.46 624.909 1213.94 657.36C1229.25 674.801 1244.03 694.083 1258.32 712.734C1280.54 741.732 1303.52 771.715 1329.74 796.61C1354.13 819.758 1380.76 836.922 1408.39 847.678L1409.04 846.645Z" fill="#2F135B"/>
<path d="M1406.43 850.809C1377.85 840.891 1350.49 823.786 1325.7 799.91C1298.97 774.176 1275.99 742.581 1253.74 712.047C1240.25 693.515 1226.29 674.373 1211.81 656.962C1183.55 623.02 1143.34 583.957 1082.76 583.113C1078.89 583.056 1074.73 583.131 1069.25 583.344C1048.52 584.173 1026.08 587.125 1004.33 589.965C977.653 593.458 950.063 597.073 925.259 596.844C898.269 596.588 870.665 593.408 851.567 571.982C833.298 551.428 823.824 518.994 814.636 487.631C806.551 460.026 798.186 431.486 783.852 410.46C767.719 386.794 743.274 373.029 709.12 368.385C677.583 364.094 642.033 367.983 608.322 372.828C602.329 373.689 596.3 374.567 590.233 375.462C533.952 383.751 475.756 392.326 427.686 382.973C416.997 380.898 408.54 378.264 401.046 374.673C362.142 356.126 338.044 313.99 316.701 272.431C314.774 268.669 312.848 264.893 310.924 261.103C291.211 222.328 270.83 182.235 240.715 157.006C218.654 138.579 191.944 126.588 163.506 122.343L162.81 123.451C191.219 127.594 217.914 139.525 239.941 157.923C269.86 182.995 290.19 222.97 309.847 261.637C311.767 265.428 313.691 269.206 315.619 272.972C335.05 310.805 356.756 349.105 389.869 369.89C393.308 372.051 396.868 374.011 400.534 375.76C408.119 379.386 416.674 382.063 427.474 384.151C475.722 393.537 534.038 384.958 590.43 376.665C596.486 375.775 602.516 374.897 608.519 374.031C642.154 369.2 677.593 365.315 708.982 369.588C742.77 374.184 766.927 387.785 782.867 411.137C797.096 431.994 805.426 460.456 813.485 487.965C822.711 519.459 832.252 552.021 850.679 572.782C870.088 594.562 898.001 597.8 925.27 598.055C950.162 598.288 977.791 594.674 1004.51 591.168C1026.22 588.323 1048.66 585.372 1069.33 584.561C1074.78 584.343 1078.92 584.269 1082.77 584.324C1142.84 585.165 1182.8 623.998 1210.89 657.731C1225.35 675.094 1239.29 694.239 1252.77 712.752C1275.03 743.34 1298.06 774.967 1324.87 800.778C1349.71 824.701 1377.13 841.869 1405.77 851.859L1406.43 850.809Z" fill="#2F135B"/>
<path d="M1403.87 854.879C1374.24 845.823 1346.08 828.747 1320.82 804.079C1293.6 777.504 1270.66 744.341 1248.48 712.263C1235.69 693.802 1222.51 674.723 1208.78 657.359C1180.91 622.123 1141.06 581.636 1079.69 581.319C1075.76 581.297 1071.56 581.417 1066.05 581.703C1044.47 582.813 1020.97 586.346 998.229 589.785C972.126 593.721 945.137 597.787 920.849 598.217C893.276 598.708 865.122 596.205 846 574.809C827.617 554.149 818.524 520.909 809.736 488.764C802.083 460.795 794.18 431.863 780.14 410.658C764.188 386.549 739.625 372.801 705.067 368.647C673.023 364.776 635.402 369.717 602.832 375.062C596.912 376.037 590.954 377.03 584.958 378.041C527.895 387.593 468.894 397.469 420.512 388.568C409.683 386.536 401.117 383.93 393.563 380.301C354.658 361.709 331.952 320.145 310.254 275.568C308.585 272.124 306.915 268.668 305.245 265.201C285.842 224.984 265.78 183.399 235.034 158.012C215.145 141.592 190.751 130.734 164.494 126.61C163.376 126.431 162.253 126.288 161.131 126.135L160.364 127.357C187.59 130.93 213.298 141.609 234.273 158.926C264.813 184.144 284.801 225.597 304.158 265.705C305.832 269.172 307.504 272.627 309.173 276.071C328.98 316.746 349.601 354.905 382.623 375.627C385.988 377.742 389.471 379.663 393.055 381.38C400.722 385.057 409.386 387.712 420.319 389.725C468.923 398.652 528.027 388.773 585.192 379.204C591.173 378.199 597.129 377.205 603.062 376.223C669.779 365.284 743.927 358.055 779.159 411.309C793.083 432.355 800.969 461.18 808.571 489.049C817.399 521.328 826.531 554.706 845.104 575.587C864.559 597.356 893.021 599.899 920.886 599.404C945.254 598.973 972.285 594.894 998.425 590.953C1021.13 587.533 1044.61 583.995 1066.12 582.9C1071.6 582.62 1075.79 582.498 1079.69 582.522C1140.53 582.831 1180.11 623.067 1207.81 658.087C1221.52 675.425 1234.71 694.489 1247.46 712.928C1269.69 745.05 1292.66 778.269 1319.96 804.929C1343.47 827.886 1370.92 845.036 1399.34 854.527C1400.66 854.967 1401.97 855.368 1403.29 855.776L1403.87 854.879Z" fill="#2F135B"/>
<path d="M1401.6 858.505C1370.63 850.335 1341.33 833.391 1315.94 808.25C1288.34 780.904 1265.51 746.194 1243.45 712.641C1231.33 694.202 1218.81 675.147 1205.74 657.736C1178.29 621.196 1138.8 579.288 1076.63 579.533C1072.69 579.546 1068.31 579.716 1062.85 580.059C1040.47 581.471 1015.94 585.65 992.238 589.687C966.681 594.045 940.255 598.55 916.453 599.596C888.304 600.834 859.613 599.033 840.453 577.642C821.937 556.887 813.265 522.85 804.879 489.929C797.657 461.582 790.19 432.271 776.446 410.866C741.174 355.941 665.502 364.723 597.348 377.264C591.454 378.346 585.531 379.45 579.577 380.574C521.781 391.394 462.044 402.596 413.351 394.119C402.401 392.215 393.738 389.611 386.079 385.922C347.189 367.299 324.966 324.568 303.809 278.695C302.355 275.545 300.906 272.385 299.462 269.214C280.403 227.583 260.688 184.541 229.345 159.012C209.285 142.695 184.894 132.815 158.915 129.656L158.21 130.78C184.175 133.835 208.564 143.645 228.582 159.948C259.723 185.275 279.359 228.2 298.355 269.706C299.798 272.884 301.247 276.046 302.703 279.193C322.104 321.255 342.4 360.681 375.643 381.547C378.846 383.561 382.162 385.39 385.574 387.025C393.338 390.763 402.093 393.419 413.168 395.322C462.066 403.825 521.938 392.606 579.829 381.772C585.774 380.661 591.695 379.558 597.593 378.463C665.346 365.982 740.569 357.23 775.414 411.507C789.05 432.742 796.491 461.958 803.686 490.213C812.113 523.268 820.822 557.454 839.548 578.443C859.054 600.221 888.057 602.076 916.518 600.802C940.406 599.763 966.857 595.245 992.451 590.883C1016.13 586.848 1040.62 582.67 1062.94 581.263C1068.38 580.924 1072.73 580.753 1076.64 580.742C1138.27 580.516 1177.48 622.162 1204.76 658.469C1217.81 675.821 1230.32 694.872 1242.44 713.295C1264.53 746.901 1287.37 781.652 1315.09 809.102C1338.51 832.323 1366.18 849.239 1395.07 858.07C1396.97 858.648 1398.89 859.198 1400.83 859.719L1401.6 858.505Z" fill="#2F135B"/>
<path d="M1399.18 862.351C1367.09 855.205 1336.91 838.373 1311.06 812.419C1283.09 784.329 1260.48 748.143 1238.62 713.146C1227.08 694.677 1215.15 675.588 1202.69 658.145C1175.65 620.31 1136.55 576.976 1073.56 577.745C1069.56 577.805 1065.12 578.006 1059.65 578.412C1036.47 580.128 1010.98 584.985 986.318 589.675C961.278 594.436 935.388 599.352 912.042 600.98C883.324 602.979 854.1 601.883 834.879 580.482C816.232 559.628 808 524.81 800.025 491.125C793.227 462.392 786.194 432.677 772.734 411.081C737.824 355.094 661.065 365.408 591.847 379.491C585.959 380.691 580.039 381.908 574.088 383.144C515.604 395.23 455.127 407.729 406.154 399.688C395.087 397.853 386.311 395.286 378.564 391.548C339.667 372.88 317.947 328.988 297.332 281.826L293.593 273.175C274.913 230.135 255.603 185.627 223.67 160C204.583 144.731 181.559 135.618 156.918 132.838L156.212 133.963C180.851 136.639 203.859 145.696 222.905 160.957C254.609 186.371 273.859 230.74 292.481 273.647L296.243 282.307C315.226 325.747 335.158 366.449 368.612 387.448C371.667 389.358 374.827 391.094 378.079 392.646C385.932 396.44 394.803 399.055 406.003 400.894C455.177 408.958 515.764 396.438 574.356 384.323C580.303 383.096 586.221 381.88 592.113 380.674C660.928 366.674 737.23 356.374 771.717 411.709C785.065 433.149 792.078 462.75 798.86 491.393C806.863 525.221 815.167 560.215 833.992 581.282C853.56 603.078 883.12 604.208 912.153 602.185C935.561 600.556 961.491 595.632 986.564 590.863C1011.19 586.185 1036.67 581.344 1059.76 579.624C1065.21 579.219 1069.61 578.991 1073.6 578.954C1136.01 578.19 1174.85 621.247 1201.71 658.843C1214.15 676.254 1226.07 695.331 1237.59 713.782C1259.5 748.832 1282.14 785.08 1310.22 813.266C1336.12 839.284 1366.35 856.192 1398.51 863.44L1399.18 862.351Z" fill="#2F135B"/>
<path d="M1396.83 866.094C1363.57 860.063 1332.5 843.376 1306.19 816.58C1277.92 787.8 1255.56 750.161 1233.95 713.758C1222.94 695.226 1211.57 676.062 1199.65 658.533C1173.04 619.396 1134.32 574.637 1070.5 575.946C1066.42 576.033 1061.95 576.292 1056.44 576.775C1032.54 578.816 1006.09 584.359 980.498 589.729C955.936 594.876 930.545 600.196 907.639 602.361C878.354 605.128 848.595 604.731 829.323 583.303C810.566 562.38 802.757 526.76 795.194 492.311C788.808 463.184 782.218 433.054 768.997 411.256C734.502 354.166 656.638 366.059 586.354 381.704C580.445 383.016 574.505 384.353 568.534 385.716C509.383 399.065 448.217 412.869 399.021 405.274C387.812 403.548 378.947 400.977 371.113 397.189C332.21 378.449 310.974 333.425 290.93 284.957C289.842 282.332 288.757 279.699 287.675 277.059C269.387 232.646 250.479 186.703 217.993 161.036C200.318 147.102 178.71 138.514 154.982 135.967L154.356 136.965C177.601 139.379 199.218 147.735 217.249 161.977C249.501 187.457 268.343 233.235 286.552 277.529L289.807 285.427C308.363 330.252 327.927 372.172 361.589 393.301C364.492 395.123 367.494 396.782 370.582 398.27C378.525 402.12 387.506 404.713 398.836 406.463C448.262 414.089 509.544 400.262 568.808 386.888C574.778 385.539 580.717 384.203 586.625 382.88C656.46 367.327 733.877 355.477 767.981 411.89C781.049 433.507 787.647 463.534 794.011 492.562C801.594 527.16 809.441 562.935 828.41 584.098C848.059 605.928 878.161 606.348 907.76 603.55C930.738 601.379 956.165 596.054 980.767 590.88C1006.31 585.528 1032.73 579.992 1056.56 577.945C1062.04 577.477 1066.48 577.22 1070.53 577.14C1133.76 575.838 1172.21 620.299 1198.64 659.182C1210.54 676.685 1221.91 695.826 1232.9 714.346C1254.55 750.811 1276.95 788.515 1305.32 817.402C1315.5 827.827 1326.86 837.023 1339.17 844.802C1356.56 855.814 1375.9 863.414 1396.14 867.199L1396.83 866.094Z" fill="#2F135B"/>
<path d="M1394.57 869.696C1360.1 864.867 1328.08 848.405 1301.31 820.752C1272.78 791.32 1250.74 752.261 1229.42 714.486C1218.9 695.852 1208.02 676.581 1196.6 658.927C1170.42 618.48 1132.09 572.3 1067.43 574.162C1063.28 574.281 1058.78 574.588 1053.23 575.114C1028.62 577.5 1001.24 583.765 974.771 589.825C950.66 595.346 925.726 601.067 903.225 603.725C873.389 607.271 843.111 607.592 823.74 586.131C804.876 565.135 797.507 528.735 790.384 493.54C784.409 464.017 778.213 433.476 765.308 411.473C731.135 353.274 652.175 366.733 580.854 383.914C574.895 385.353 568.902 386.811 562.875 388.287C503.116 402.911 441.263 417.999 391.843 410.843C380.67 409.231 371.436 406.598 363.616 402.814C324.673 384.049 303.953 337.831 284.461 288.103L281.658 280.914C263.803 235.115 245.346 187.757 212.276 162.019C195.461 148.937 175.084 141.258 153.07 138.969L152.354 140.11C174.375 142.29 194.755 149.908 211.546 162.975C244.347 188.482 262.736 235.695 280.528 281.341L283.332 288.53C301.438 334.714 320.611 377.87 354.464 399.119C357.247 400.869 360.125 402.463 363.085 403.894C371.02 407.739 380.372 410.401 391.672 412.036C441.329 419.222 503.274 404.095 563.179 389.465C569.199 387.993 575.191 386.534 581.153 385.09C652.052 368.013 730.52 354.597 764.265 412.079C777.083 433.914 783.255 464.321 789.198 493.767C796.355 529.125 803.754 565.686 822.846 586.932C842.59 608.81 873.224 608.508 903.367 604.916C925.94 602.234 950.903 596.521 975.02 590.981C1001.48 584.941 1028.79 578.671 1053.33 576.295C1058.83 575.773 1063.32 575.456 1067.43 575.34C1131.48 573.517 1169.54 619.375 1195.54 659.547C1206.94 677.168 1217.81 696.421 1228.32 715.039C1249.68 752.87 1271.76 792.011 1300.39 821.558C1327.24 849.264 1359.3 865.845 1393.82 870.797L1394.57 869.696Z" fill="#2F135B"/>
<path d="M1392.37 873.2C1356.65 869.67 1323.68 853.431 1296.44 824.908C1267.7 794.848 1246 754.396 1225.01 715.278C1214.95 696.51 1204.54 677.103 1193.57 659.307C1167.82 617.574 1129.89 569.975 1064.35 572.367C1060.15 572.519 1055.6 572.869 1050.05 573.482C1024.76 576.204 996.501 583.22 969.165 590.005C945.477 595.882 920.981 601.962 898.839 605.113C868.46 609.442 837.66 610.487 818.197 588.973C799.224 567.909 792.305 530.735 785.61 494.786C780.03 464.853 774.28 433.916 761.617 411.69C727.806 352.372 647.742 367.393 575.381 386.148C569.351 387.712 563.286 389.297 557.187 390.901C496.768 406.747 434.31 423.143 384.687 416.427C373.387 414.899 364.05 412.287 356.14 408.447C317.172 389.604 296.947 342.255 278.014 291.258L275.609 284.751C258.183 237.575 240.196 188.819 206.599 163.062C190.825 150.912 171.893 143.822 151.397 141.634L150.673 142.787C171.188 144.873 190.115 151.909 205.865 163.987C239.177 189.531 257.119 238.133 274.469 285.132L276.874 291.639C294.514 339.188 313.279 383.571 347.343 404.946C350.006 406.619 352.759 408.144 355.589 409.515C363.617 413.418 373.079 416.058 384.513 417.607C434.393 424.365 496.974 407.945 557.52 392.076C563.614 390.476 569.677 388.892 575.708 387.324C647.647 368.691 727.196 353.715 760.575 412.286C773.137 434.329 778.88 465.176 784.43 495.005C791.152 531.119 798.106 568.462 817.315 589.783C837.165 611.726 868.324 610.697 899.04 606.318C921.241 603.154 945.768 597.07 969.486 591.183C996.779 584.411 1025.01 577.407 1050.2 574.691C1055.75 574.093 1060.27 573.745 1064.44 573.594C1129.34 571.207 1166.99 618.494 1192.55 659.959C1203.5 677.729 1213.9 697.116 1223.96 715.87C1244.95 755.041 1266.7 795.558 1295.55 825.75C1318.71 849.939 1347.18 866.012 1377.94 872.187C1382.49 873.104 1387.08 873.785 1391.69 874.28L1392.37 873.2Z" fill="#2F135B"/>
<path d="M1390.23 876.606C1353.21 874.472 1319.27 858.483 1291.55 829.093C1262.62 798.439 1241.31 756.617 1220.69 716.182C1211.04 697.249 1201.06 677.682 1190.51 659.717C1165.22 616.658 1127.69 567.62 1061.29 570.584C1057.01 570.774 1052.42 571.172 1046.83 571.833C1020.91 574.9 991.792 582.678 963.611 590.204C940.309 596.432 916.215 602.873 894.415 606.482C863.49 611.599 832.17 613.356 812.615 591.791C793.533 570.664 787.067 532.724 780.816 496.031C775.649 465.693 770.292 434.338 757.887 411.882C743.056 385.075 717.803 371.388 680.682 370.043C645.905 368.784 605.149 378.595 569.865 388.353C563.748 390.045 557.592 391.764 551.396 393.508C490.408 410.604 427.325 428.276 377.504 421.993C366.085 420.556 356.634 417.98 348.645 414.067C309.622 395.15 289.913 346.654 271.564 294.366L269.509 288.493C252.56 239.98 235.032 189.814 200.904 164.054C186.198 152.921 168.736 146.35 149.791 144.192L149.077 145.329C168.034 147.397 185.498 153.901 200.201 165.004C234.031 190.56 251.486 240.544 268.375 288.883L270.431 294.762C287.589 343.656 305.94 389.261 340.198 410.758C342.758 412.371 345.404 413.843 348.125 415.166C356.247 419.129 365.827 421.734 377.372 423.205C427.426 429.505 490.633 411.79 551.752 394.675C557.935 392.944 564.088 391.228 570.212 389.525C605.409 379.786 646.053 370.002 680.662 371.258C717.316 372.588 742.221 386.045 756.817 412.449C769.129 434.71 774.46 465.98 779.614 496.214C785.886 533.09 792.393 571.198 811.706 592.589C814.862 596.08 818.485 599.119 822.473 601.619C842.093 613.934 868.513 612.003 894.618 607.666C916.476 604.047 940.604 597.605 963.928 591.369C992.055 583.848 1021.13 576.077 1046.97 573.015C1052.52 572.357 1057.08 571.975 1061.35 571.777C1127.09 568.848 1164.34 617.548 1189.45 660.308C1199.99 678.244 1209.96 697.797 1219.6 716.711C1240.25 757.222 1261.61 799.12 1290.65 829.905C1313.72 854.358 1342.43 870.204 1373.64 875.71C1378.92 876.629 1384.25 877.26 1389.59 877.601L1390.23 876.606Z" fill="#2F135B"/>
<path d="M1388.49 879.384C1349.87 878.684 1314.48 863.144 1286.66 833.266C1257.59 802.038 1236.68 758.88 1216.46 717.143C1207.2 698.033 1197.62 678.271 1187.46 660.114C1162.61 615.739 1125.5 565.281 1058.22 568.797C1053.92 569.022 1049.15 569.481 1043.62 570.193C1017.1 573.622 987.148 582.187 958.186 590.479C935.24 597.043 911.509 603.836 890.019 607.89C858.542 613.796 826.725 616.298 807.051 594.652C787.876 573.467 781.867 534.763 776.06 497.327C771.287 466.577 766.351 434.776 754.174 412.112C739.544 384.858 714.163 371.175 676.616 370.302C641.356 369.478 600.091 380.099 564.371 390.599C558.142 392.433 551.875 394.291 545.571 396.172C483.995 414.495 420.316 433.44 370.328 427.585C358.786 426.236 349.245 423.66 341.147 419.713C302.015 400.716 283.555 353.128 265.104 297.517L263.36 292.242C246.895 242.369 229.86 190.815 195.233 165.037C181.837 155.077 165.865 148.948 148.153 146.803L147.544 147.773C164.932 149.867 180.905 155.884 194.506 166.006C228.838 191.531 245.804 242.916 262.217 292.592L263.961 297.867C281.223 349.882 298.502 394.91 332.721 416.389C335.275 417.998 337.916 419.466 340.632 420.786C348.843 424.805 358.524 427.412 370.19 428.771C420.431 434.648 484.23 415.664 545.924 397.308C552.223 395.435 558.489 393.577 564.723 391.735C600.353 381.262 641.515 370.651 676.605 371.493C713.676 372.358 738.701 385.822 753.113 412.655C765.183 435.139 770.109 466.837 774.862 497.484C780.718 535.104 786.731 573.981 806.156 595.437C809.215 598.815 812.722 601.758 816.58 604.183C836.444 616.651 863.493 614.088 890.253 609.059C911.8 605.007 935.554 598.211 958.526 591.635C987.449 583.359 1017.35 574.801 1043.78 571.381C1049.27 570.672 1054.02 570.22 1058.28 569.996C1124.89 566.512 1161.73 616.637 1186.39 660.685C1196.55 678.815 1206.1 698.557 1215.36 717.655C1235.62 759.467 1256.57 802.708 1285.77 834.074C1308.76 858.781 1337.67 874.402 1369.36 879.243C1375.39 880.162 1381.47 880.699 1387.57 880.851L1388.49 879.384Z" fill="#2F135B"/>
<path d="M1386.55 882.48C1346.54 883.374 1310.07 868.215 1281.79 837.43C1252.59 805.642 1232.11 761.168 1212.31 718.152C1203.42 698.839 1194.22 678.867 1184.42 660.499C1167.75 629.273 1151.36 607.621 1132.82 592.334C1109.98 573.522 1084.58 565.231 1055.17 566.989C1050.79 567.248 1045.97 567.753 1040.43 568.531C1013.31 572.334 982.559 581.686 952.836 590.767C930.219 597.663 906.83 604.796 885.625 609.244C853.634 615.97 821.288 619.189 801.5 597.455C782.223 576.223 776.69 536.761 771.317 498.587C766.94 467.415 762.387 435.168 750.48 412.298C736.034 384.58 710.548 370.911 672.568 370.51C636.82 370.129 595.044 381.565 558.897 392.798C552.541 394.775 546.143 396.779 539.703 398.81C477.565 418.353 413.312 438.556 363.17 433.145C351.498 431.878 341.865 429.33 333.669 425.322C294.473 406.256 276.511 357.567 258.665 300.631L257.183 295.924C241.2 244.741 224.671 191.812 189.54 166.052C177.246 157.035 162.721 151.41 146.617 149.248L145.876 150.429C161.83 152.459 176.448 157.937 188.828 167.014C223.641 192.523 240.107 245.264 256.034 296.265L257.505 300.982C274.247 354.385 291.101 400.567 325.536 422.181C328.004 423.724 330.552 425.134 333.17 426.405C341.479 430.485 351.273 433.066 363.073 434.339C413.486 439.796 477.85 419.543 540.104 399.959C546.534 397.937 552.93 395.934 559.292 393.949C595.354 382.742 637.011 371.334 672.595 371.714C710.078 372.11 735.212 385.564 749.425 412.84C761.25 435.534 765.774 467.666 770.139 498.739C775.535 537.093 781.101 576.746 800.619 598.253C820.832 620.448 853.551 617.213 885.919 610.428C907.177 605.968 930.601 598.834 953.241 591.918C982.931 582.863 1013.63 573.505 1040.64 569.735C1046.15 568.96 1050.94 568.463 1055.28 568.207C1122.75 564.169 1159.18 615.704 1183.38 661.051C1193.17 679.388 1202.36 699.348 1211.26 718.658C1231.1 761.774 1251.62 806.321 1280.95 838.252C1303.88 863.206 1332.99 878.606 1365.14 882.784C1371.93 883.655 1378.78 884.044 1385.63 883.947L1386.55 882.48Z" fill="#2F135B"/>
<path d="M1384.68 885.451C1343.25 888.05 1305.66 873.33 1276.91 841.599C1247.61 809.274 1227.59 763.502 1208.22 719.232C1199.68 699.674 1190.84 679.486 1181.37 660.887C1165.05 628.807 1148.8 606.568 1130.26 590.902C1107.43 571.62 1081.86 563.21 1052.09 565.211C1047.65 565.509 1042.79 566.062 1037.22 566.891C1009.58 571.039 978.062 581.232 947.585 591.089C925.258 598.309 902.176 605.776 881.222 610.627C848.698 618.147 815.852 622.11 795.912 600.274C776.551 578.995 771.471 538.767 766.56 499.866C762.583 468.281 758.444 435.601 746.761 412.474C715.946 351.605 635.622 368.105 553.407 395.02C546.902 397.15 540.355 399.308 533.768 401.496C471.101 422.252 406.301 443.714 356.005 438.711C344.22 437.561 334.48 435.002 326.19 430.946C286.922 411.796 269.456 362.01 252.217 303.756L250.99 299.579C235.485 247.094 219.484 192.782 183.858 167.052C172.552 158.882 159.433 153.788 145.127 151.624L144.427 152.74C158.75 154.83 171.877 159.884 183.152 168.023C218.44 193.506 234.391 247.6 249.828 299.923L251.058 304.103C267.27 358.894 283.694 406.231 318.303 427.955C320.684 429.446 323.142 430.811 325.666 432.043C334.073 436.184 343.974 438.747 355.899 439.928C406.45 444.966 471.38 423.45 534.166 402.65C540.747 400.472 547.291 398.314 553.799 396.174C635.505 369.429 715.297 352.964 745.695 413.043C757.29 435.967 761.404 468.535 765.384 500.025C770.317 539.116 775.419 579.534 795.045 601.104C815.389 623.381 848.633 619.407 881.512 611.808C902.52 606.952 925.632 599.475 947.975 592.247C978.417 582.392 1009.85 572.213 1037.42 568.094C1042.95 567.269 1047.79 566.719 1052.2 566.424C1120.55 561.832 1156.56 614.787 1180.3 661.433C1189.74 679.998 1198.58 700.171 1207.11 719.721C1226.51 764.077 1246.57 809.95 1276.02 842.418C1298.87 867.627 1328.19 882.806 1360.81 886.316C1368.44 887.123 1376.12 887.316 1383.78 886.893L1384.68 885.451Z" fill="#2F135B"/>
<path d="M1382.92 888.266C1340 892.681 1301.25 878.428 1272.03 845.766C1242.64 812.921 1223.09 765.864 1204.18 720.355C1195.97 700.573 1187.47 680.116 1178.32 661.28C1162.56 628.79 1146 605.295 1127.7 589.457C1104.89 569.694 1079.15 561.177 1049.03 563.418C1044.51 563.755 1039.6 564.353 1034.02 565.247C1005.85 569.758 973.599 580.783 942.409 591.441C920.353 598.979 897.545 606.777 876.804 611.994C843.755 620.332 810.416 625.025 790.352 603.106C770.901 581.782 766.291 540.804 761.842 501.159C758.239 469.133 754.517 436.021 743.042 412.69C712.578 350.657 631.248 368.597 547.898 397.23C541.232 399.513 534.525 401.834 527.777 404.194C464.609 426.163 399.274 448.867 348.822 444.312C336.93 443.231 327.07 440.71 318.687 436.596C279.335 417.37 262.38 366.491 245.752 306.912L244.735 303.258C229.78 249.437 214.285 193.767 178.162 168.071C168.245 161.001 156.515 156.313 143.579 154.088L142.988 155.029C155.665 157.188 167.338 161.795 177.471 169.035C213.232 194.469 228.66 249.921 243.576 303.552L244.592 307.206C260.267 363.375 276.252 411.863 311.059 433.705C313.359 435.147 315.733 436.468 318.17 437.663C326.693 441.843 336.688 444.402 348.738 445.492C399.434 450.093 464.899 427.345 528.221 405.347C534.962 403.005 541.666 400.685 548.335 398.385C631.14 369.932 711.92 352.038 741.971 413.222C753.343 436.375 757.055 469.384 760.645 501.305C765.121 541.125 769.756 582.306 789.472 603.922C792.304 607.028 795.543 609.738 799.1 611.976C819.667 624.886 848.52 620.388 877.124 613.172C897.898 607.93 920.73 600.13 942.811 592.579C973.952 581.936 1006.15 570.93 1034.22 566.438C1039.77 565.549 1044.65 564.951 1049.12 564.62C1118.37 559.47 1153.95 613.844 1177.23 661.792C1186.36 680.586 1194.85 701.036 1203.06 720.802C1222.01 766.405 1241.59 813.559 1271.12 846.56C1279.58 856.099 1289.34 864.397 1300.11 871.212C1324.21 886.341 1352.15 892.474 1382.12 889.574L1382.92 888.266Z" fill="#2F135B"/>
<path d="M1381.24 890.942C1336.79 897.288 1296.88 883.585 1267.15 849.931C1237.69 816.583 1218.63 768.262 1200.2 721.532C1192.3 701.493 1184.12 680.771 1175.28 661.673C1159.85 628.338 1143.45 604.241 1125.17 588.017C1102.36 567.785 1076.47 559.151 1045.96 561.627C1041.37 561.998 1036.42 562.644 1030.81 563.599C1002.15 568.478 969.192 580.338 937.319 591.806C915.504 599.654 892.947 607.774 872.421 613.371C838.854 622.526 804.999 627.95 784.802 605.936C765.261 584.584 761.132 542.84 757.132 502.489C753.914 470.029 750.583 436.476 739.35 412.893C709.246 349.7 626.906 369.096 542.42 399.458C535.587 401.917 528.702 404.41 521.765 406.939C458.084 430.086 392.249 454.038 341.662 449.869C329.656 448.881 319.695 446.376 311.211 442.204C271.763 422.89 255.319 370.917 239.315 310.026L238.471 306.856C224.012 251.711 209.064 194.691 172.465 169.049C163.674 162.884 153.409 158.662 142.104 156.438L141.416 157.534C152.733 159.702 163.001 163.893 171.796 170.044C208.009 195.415 222.913 252.225 237.318 307.149L238.159 310.323C253.285 367.863 268.831 417.494 303.825 439.454C306.05 440.851 308.347 442.131 310.706 443.29C319.329 447.527 329.433 450.075 341.598 451.072C392.432 455.254 458.418 431.261 522.222 408.072C529.14 405.554 536.024 403.06 542.872 400.589C626.816 370.431 708.585 351.114 738.276 413.412C749.425 436.794 752.74 470.247 755.964 502.608C759.971 543.173 764.14 585.096 783.948 606.764C804.548 629.274 838.811 623.805 872.748 614.547C893.327 608.939 915.903 600.807 937.74 592.95C969.566 581.493 1002.48 569.648 1031.03 564.793C1036.6 563.844 1041.53 563.203 1046.07 562.831C1100.8 558.373 1140.31 589.007 1174.18 662.163C1183 681.23 1191.16 701.926 1199.07 721.966C1217.55 768.778 1236.64 817.214 1266.24 850.725C1288.96 876.441 1318.7 891.182 1352.26 893.359C1361.64 893.946 1371.05 893.615 1380.36 892.37L1381.24 890.942Z" fill="#2F135B"/>
<path d="M1379.66 893.456C1333.62 901.863 1292.5 888.753 1262.27 854.104C1232.76 820.25 1214.2 770.691 1196.24 722.745C1188.63 702.426 1180.77 681.419 1172.21 662.05C1157.12 627.871 1140.87 603.192 1122.58 586.548C1099.79 565.842 1073.72 557.102 1042.87 559.829C1038.21 560.242 1033.22 560.934 1027.59 561.943C998.47 567.191 964.824 579.902 932.292 592.194C910.688 600.357 888.349 608.796 868 614.753C833.921 624.723 799.58 630.904 779.222 608.767C759.6 587.363 755.945 544.883 752.404 503.81C749.569 470.92 746.639 436.908 735.623 413.098C721.957 383.559 696.013 369.915 656.309 371.396C618.334 372.838 572.557 388.327 536.939 401.67C529.914 404.302 522.845 406.973 515.73 409.682C451.551 434.021 385.186 459.186 334.495 455.445C322.37 454.547 312.308 452.059 303.726 447.837C264.203 428.441 248.249 375.362 232.864 313.161L232.204 310.475C218.27 254.024 203.874 195.637 166.809 170.043C158.875 164.663 149.984 160.85 140.616 158.81L139.951 159.869C149.318 161.859 158.205 165.656 166.114 171.05C202.811 196.355 217.154 254.511 231.025 310.746L231.685 313.432C246.269 372.359 261.35 423.118 296.533 445.202C298.688 446.555 300.912 447.794 303.197 448.913C311.925 453.21 322.144 455.746 334.42 456.648C385.362 460.432 451.867 435.196 516.172 410.811C523.278 408.116 530.345 405.447 537.372 402.805C572.905 389.488 618.548 374.022 656.384 372.613C695.538 371.15 721.101 384.561 734.535 413.603C745.462 437.221 748.38 471.134 751.214 503.909C754.773 545.187 758.448 587.872 778.346 609.585C799.16 632.214 833.91 626.005 868.37 615.923C888.766 609.955 911.123 601.505 932.751 593.323C965.238 581.048 998.828 568.353 1027.85 563.13C1033.43 562.125 1038.4 561.437 1043.02 561.03C1114.86 554.674 1150.54 615.911 1171.13 662.522C1179.67 681.86 1187.53 702.854 1195.13 723.155C1213.11 771.193 1231.71 820.865 1261.37 854.876C1284.02 880.844 1313.96 895.364 1347.97 896.862C1358.28 897.292 1368.6 896.623 1378.77 894.866L1379.66 893.456Z" fill="#2F135B"/>
<path d="M1378.19 895.803C1330.5 906.397 1288.11 893.943 1257.39 858.272C1227.84 823.944 1209.8 773.144 1192.35 724.01C1185.03 703.408 1177.46 682.103 1169.18 662.451C1154.43 627.437 1138.36 602.135 1120.05 585.109C1097.27 563.929 1071.03 555.074 1039.83 558.044C1035.11 558.487 1030.06 559.233 1024.42 560.296C994.829 565.905 960.551 579.48 927.387 592.597C905.971 601.065 883.828 609.825 863.623 616.129C829.022 626.94 794.185 633.867 773.68 611.603C753.985 590.154 750.796 546.939 747.723 505.147C745.273 471.807 742.73 437.351 731.935 413.305C718.464 383.302 692.407 369.667 652.27 371.62C613.73 373.502 567.456 389.856 531.444 403.899C524.227 406.711 516.956 409.567 509.63 412.469C444.977 437.976 378.123 464.355 327.32 461.027C315.08 460.222 304.91 457.752 296.243 453.447C256.621 433.95 241.174 379.792 226.416 316.275L225.901 314.044C212.51 256.287 198.66 196.56 161.115 171.052C160.427 170.586 159.736 170.135 159.033 169.693C152.874 165.86 146.173 162.977 139.154 161.14L138.489 162.199C145.519 164.007 152.231 166.879 158.391 170.716C159.082 171.15 159.773 171.584 160.441 172.054C197.589 197.291 211.382 256.783 224.726 314.317L225.244 316.545C239.249 376.828 253.89 428.731 289.263 450.935C291.353 452.246 293.509 453.45 295.722 454.54C304.55 458.894 314.868 461.407 327.274 462.22C378.348 465.576 445.329 439.14 510.107 413.586C517.416 410.7 524.686 407.845 531.919 405.021C567.824 391.012 613.975 374.701 652.341 372.834C691.912 370.907 717.584 384.306 730.823 413.794C741.529 437.648 744.06 472.005 746.504 505.229C749.609 547.232 752.8 590.66 772.782 612.419C793.751 635.173 829.012 628.212 863.993 617.292C884.235 610.973 906.399 602.208 927.837 593.731C960.949 580.633 995.19 567.091 1024.65 561.498C1030.26 560.431 1035.27 559.695 1039.96 559.252C1112.72 552.318 1147.91 615.09 1168.07 662.905C1176.33 682.523 1183.89 703.812 1191.2 724.405C1208.69 773.64 1226.78 824.54 1256.48 859.048C1279.06 885.275 1309.21 899.572 1343.68 900.398C1355 900.609 1366.32 899.492 1377.39 897.07L1378.19 895.803Z" fill="#2F135B"/>
<path d="M1376.97 897.738C1364.06 901.084 1351.49 902.757 1339.39 902.715C1304.83 902.561 1274.79 888.635 1252.52 862.44C1222.93 827.642 1205.41 775.616 1188.47 725.306C1181.42 704.414 1174.14 682.807 1166.14 662.84C1151.72 626.988 1135.81 601.082 1117.49 583.66C1094.73 561.991 1068.32 553.043 1036.76 556.267C1031.92 556.744 1026.88 557.558 1021.2 558.675C991.207 564.659 956.261 579.071 922.509 593.027C901.246 601.83 879.283 610.88 859.213 617.529C824.107 629.154 788.767 636.827 768.107 614.449C748.339 592.953 745.629 549.011 743.012 506.502C740.939 472.732 738.795 437.812 728.213 413.518C714.952 383.046 688.764 369.448 648.198 371.858C609.131 374.182 562.346 391.385 525.947 406.128C518.517 409.135 511.035 412.187 503.503 415.285C438.391 441.958 371.054 469.539 320.155 466.599C307.804 465.889 297.53 463.432 288.751 459.098C249.025 439.512 234.092 384.257 219.957 319.422L219.57 317.629C206.722 258.572 193.438 197.502 155.426 172.07C149.913 168.413 143.89 165.59 137.552 163.69L136.954 164.644C143.268 166.571 149.266 169.41 154.758 173.07C192.355 198.225 205.59 259.048 218.387 317.869L218.775 319.663C232.219 381.309 246.39 434.348 281.951 456.669C283.988 457.947 286.089 459.12 288.246 460.183C297.174 464.595 307.604 467.092 320.12 467.81C371.304 470.758 438.763 443.117 504.007 416.396C511.529 413.315 519.007 410.264 526.441 407.245C562.748 392.551 609.412 375.387 648.312 373.066C688.305 370.676 714.086 384.064 727.116 414.011C737.614 438.104 739.751 472.918 741.822 506.583C744.466 549.32 747.159 593.479 767.23 615.278C788.357 638.194 824.131 630.452 859.621 618.694C879.744 612.015 901.731 602.952 922.999 594.17C956.723 580.241 991.59 565.837 1021.47 559.88C1027.09 558.755 1032.14 557.974 1036.91 557.488C1110.6 549.977 1145.32 614.282 1165.02 663.309C1173.02 683.217 1180.3 704.82 1187.33 725.704C1204.31 776.119 1221.86 828.263 1251.6 863.239C1274.12 889.719 1304.47 903.807 1339.39 903.944C1351.76 903.911 1364.07 902.326 1376.04 899.225L1376.97 897.738Z" fill="#2F135B"/>
<path d="M1375.77 899.657C1361.76 903.825 1348.14 906.049 1335.08 906.243C1300.07 906.754 1269.83 893.044 1247.63 866.606C1218.03 831.351 1201.05 778.119 1184.62 726.64C1177.85 705.421 1170.85 683.484 1163.09 663.231C1143.68 612.622 1109.17 546.284 1033.69 554.469C1028.83 554.999 1023.69 555.83 1018 557.019C987.61 563.373 952.069 578.672 917.709 593.451C896.604 602.534 874.773 611.934 854.812 618.907C819.215 631.377 783.374 639.786 762.541 617.276C742.69 595.769 740.47 551.073 738.325 507.848C736.628 473.633 734.872 438.257 724.502 413.723C717.211 396.448 705.387 384.352 689.407 377.803C646.589 360.246 579.978 383.394 520.46 408.341C512.816 411.545 505.104 414.82 497.337 418.094C431.769 445.917 363.972 474.692 312.962 472.171C300.497 471.554 290.121 469.113 281.239 464.719C241.399 445.045 226.985 388.69 213.489 322.559L213.213 321.193C200.932 260.827 188.216 198.417 149.739 173.078C145.428 170.261 140.794 167.973 135.936 166.266L135.284 167.304C140.142 168.989 144.773 171.265 149.075 174.081C187.127 199.141 199.791 261.298 212.043 321.413L212.319 322.779C225.184 385.782 238.899 439.954 274.642 462.39C276.615 463.629 278.649 464.766 280.739 465.797C289.768 470.272 300.302 472.749 312.943 473.375C364.23 475.916 432.144 447.107 497.845 419.208C505.58 415.913 513.299 412.643 520.968 409.455C580.261 384.605 646.587 361.54 688.983 378.922C704.649 385.348 716.234 397.209 723.423 414.17C733.704 438.501 735.455 473.777 737.144 507.879C739.294 551.322 741.528 596.238 761.68 618.071C764.238 620.85 767.152 623.277 770.348 625.289C792.062 638.918 823.757 631.048 855.256 620.032C875.261 613.036 897.106 603.639 918.234 594.547C952.542 579.787 988.018 564.521 1018.29 558.194C1023.94 557.014 1029.03 556.185 1033.87 555.663C1108.49 547.565 1142.71 613.401 1161.98 663.646C1169.74 683.85 1176.72 705.788 1183.49 726.987C1199.95 778.579 1216.98 831.928 1246.73 867.37C1269.18 894.098 1299.75 907.954 1335.14 907.443C1347.89 907.256 1361.18 905.136 1374.83 901.187L1375.77 899.657Z" fill="#2F135B"/>
<path d="M1374.68 901.384C1359.53 906.466 1344.82 909.307 1330.77 909.772C1295.31 910.95 1264.87 897.468 1242.75 870.786C1213.14 835.073 1196.69 780.646 1180.79 728.012C1174.28 706.475 1167.55 684.199 1160.03 663.626C1141.08 611.797 1107.05 543.905 1030.62 552.685C1025.31 553.318 1020.02 554.218 1014.8 555.382C984.022 562.11 947.907 578.258 912.987 593.884C891.999 603.268 870.298 612.977 850.419 620.296C816.035 632.948 778.049 642.822 756.98 620.113C737.059 598.579 735.33 553.139 733.648 509.212C732.323 474.549 730.955 438.707 720.8 413.932C713.631 396.461 701.906 384.298 685.94 377.763C642.511 359.987 571.761 385.955 514.978 410.563C507.106 413.976 499.167 417.46 491.19 420.96C425.172 449.943 356.927 479.891 305.825 477.761C293.24 477.244 282.746 474.804 273.782 470.358C230.6 448.984 217.544 380.624 207.047 325.677L206.867 324.718C195.124 263.071 182.992 199.335 144.044 174.076C140.94 172.065 137.657 170.344 134.238 168.932L133.594 169.958C137.014 171.36 140.295 173.079 143.394 175.093C181.887 200.056 193.984 263.543 205.683 324.935L205.863 325.894C215.928 378.604 228.315 443.614 267.525 468.22C269.377 469.384 271.288 470.454 273.248 471.426C282.385 475.957 293.03 478.419 305.782 478.95C357.164 481.102 425.552 451.079 491.678 422.051C499.661 418.542 507.595 415.066 515.467 411.653C572.031 387.141 642.474 361.265 685.483 378.862C701.129 385.275 712.634 397.21 719.668 414.363C729.746 438.936 731.115 474.677 732.429 509.23C734.11 553.385 735.851 599.042 756.088 620.91C777.628 644.142 816.084 634.205 850.843 621.409C870.75 614.072 892.475 604.379 913.489 594.972C948.356 579.375 984.409 563.244 1015.07 556.55C1020.25 555.394 1025.5 554.501 1030.78 553.873C1088.29 547.261 1129.01 582.262 1158.89 664.02C1166.4 684.561 1173.13 706.813 1179.63 728.335C1195.57 781.086 1212.03 835.62 1241.82 871.537C1264.19 898.519 1294.97 912.158 1330.83 910.965C1344.56 910.5 1358.91 907.816 1373.67 902.987L1374.68 901.384Z" fill="#2F135B"/>
<path d="M1373.68 902.973C1350.67 911.543 1328.64 914.908 1308.16 912.828C1280.22 909.997 1255.91 896.894 1237.86 874.948C1208.31 838.724 1192.37 783.1 1176.98 729.321C1170.72 707.477 1164.25 684.891 1156.97 664.012C1127.59 579.687 1086.46 543.746 1027.55 550.892C1022.18 551.561 1016.86 552.512 1011.59 553.74C980.462 560.829 943.765 577.833 908.323 594.301C887.434 603.997 865.829 614.021 846.011 621.668C811.153 635.119 772.657 645.797 751.41 622.937C731.411 601.376 730.164 555.212 728.948 510.588C727.998 475.48 727.02 439.172 717.069 414.151C710.049 396.507 698.42 384.272 682.442 377.73C638.643 359.83 567.004 387.051 509.471 412.801C501.362 416.429 493.177 420.134 484.961 423.859C418.529 453.962 349.835 485.087 298.638 483.352C285.947 482.923 275.364 480.516 266.277 476.005C222.983 454.51 210.572 384.817 200.59 328.842L200.494 328.281C189.307 265.342 177.74 200.263 138.349 175.123C136.453 173.902 134.486 172.793 132.46 171.802L131.811 172.836C133.73 173.736 135.594 174.748 137.394 175.869L137.715 176.071C176.648 200.929 188.167 265.74 199.306 328.422L199.407 328.985C208.986 382.793 220.802 449.182 260.188 473.904C261.99 475.038 263.849 476.079 265.756 477.024C275.001 481.618 285.751 484.066 298.621 484.5C350.099 486.247 418.922 455.061 485.485 424.903C493.7 421.178 501.881 417.471 509.994 413.845C567.296 388.239 638.638 361.093 682.015 378.825C697.649 385.231 709.076 397.236 715.968 414.562C725.841 439.381 726.815 475.578 727.772 510.566C728.984 555.431 730.23 601.839 750.552 623.727C752.958 626.326 755.695 628.598 758.693 630.484C781.192 644.606 815.307 634.785 846.488 622.769C866.342 615.109 887.965 605.074 908.874 595.373C944.28 578.945 980.896 561.953 1011.92 554.903C1017.15 553.687 1022.43 552.744 1027.76 552.081C1086.02 545.035 1126.72 580.691 1155.88 664.388C1163.15 685.232 1169.61 707.806 1175.86 729.632C1191.3 783.534 1207.26 839.272 1236.97 875.697C1255.23 897.902 1279.82 911.156 1308.09 914.023C1328.33 916.086 1350.02 912.864 1372.68 904.634L1373.68 902.973Z" fill="#2F135B"/>
<path d="M1372.85 904.302C1347.98 914.502 1324.24 918.685 1302.31 916.54C1274.64 913.837 1250.67 900.889 1233 879.118C1203.44 842.458 1188.07 785.665 1173.2 730.747C1167.2 708.556 1161 685.602 1153.94 664.403C1140.92 625.209 1125.66 596.903 1107.29 577.861C1084.57 554.301 1057.49 544.894 1024.48 549.084C1019.06 549.794 1013.69 550.791 1008.37 552.072C976.899 559.529 939.691 577.411 903.705 594.708C882.89 604.711 861.368 615.054 841.6 623.028C806.265 637.275 767.252 648.742 745.822 625.739C725.75 604.15 724.993 557.259 724.26 511.911C723.69 476.342 723.091 439.574 713.345 414.301C706.469 396.48 694.877 384.133 678.944 377.636C634.807 359.625 562.262 388.135 504.001 414.99C495.649 418.834 487.211 422.778 478.742 426.736C411.892 457.957 342.766 490.248 291.486 488.898C278.671 488.55 267.994 486.175 258.809 481.603C215.374 460.018 203.583 389.011 194.157 331.942L193.805 329.796C183.341 266.516 172.53 201.099 133.311 176.481L132.676 176.083C131.985 175.649 131.27 175.245 130.551 174.846L129.907 175.872C130.632 176.271 131.349 176.681 132.049 177.109C171.296 201.124 182.137 266.629 192.605 329.974L192.955 332.125C202.049 387.031 213.268 454.795 252.852 479.636C254.601 480.733 256.408 481.754 258.27 482.679C267.619 487.331 278.479 489.758 291.464 490.099C343.028 491.457 412.286 459.108 479.263 427.83C487.732 423.872 496.16 419.934 504.518 416.081C562.555 389.33 634.786 360.913 678.517 378.776C694.13 385.169 705.465 397.241 712.235 414.751C721.906 439.819 722.496 476.484 723.072 511.943C723.809 557.521 724.568 604.651 744.961 626.578C747.33 629.137 750.025 631.373 752.977 633.228C775.699 647.491 810.373 636.952 842.078 624.163C861.894 616.157 883.424 605.819 904.253 595.812C940.179 578.546 977.311 560.679 1008.68 553.263C1013.95 551.992 1019.28 551.003 1024.65 550.3C1083.62 542.782 1124.33 579.163 1152.77 664.791C1159.81 685.973 1166.02 708.887 1172.01 731.073C1186.91 786.113 1202.32 843.03 1232.03 879.891C1249.94 901.922 1274.18 915.03 1302.18 917.769C1323.85 919.884 1347.24 915.893 1371.73 906.079L1372.85 904.302Z" fill="#2F135B"/>
<path d="M1372.15 905.421C1345.35 917.409 1319.87 922.491 1296.48 920.278C1269.08 917.69 1245.43 904.899 1228.12 883.279C1198.57 846.205 1183.76 788.252 1169.44 732.207C1163.68 709.661 1157.71 686.348 1150.89 664.789C1138.22 624.769 1123.12 595.861 1104.75 576.409C1082.35 552.7 1054.32 542.916 1021.43 547.309C1015.97 548.058 1010.55 549.102 1005.19 550.438C973.39 558.264 935.661 577.011 899.172 595.145C878.417 605.459 856.957 616.119 837.226 624.413C801.42 639.465 761.897 651.725 740.29 628.582C720.161 606.974 719.881 559.36 719.618 513.308C719.42 477.291 719.207 440.044 709.653 414.517C702.918 396.518 691.42 384.093 675.483 377.593C630.933 359.427 557.5 389.218 498.498 417.199C489.894 421.282 481.203 425.459 472.477 429.654C405.22 461.993 335.676 495.419 284.308 494.462C271.391 494.22 260.597 491.852 251.309 487.22C207.754 465.527 196.623 393.19 187.691 335.062C177.784 270.508 167.547 203.752 128.519 178.08L127.88 179.098C166.437 204.482 176.642 270.927 186.504 335.238C195.107 391.244 205.721 460.377 245.507 485.339C247.211 486.408 248.973 487.401 250.786 488.306C260.239 493.018 271.198 495.439 284.31 495.679C335.959 496.647 405.639 463.148 473.026 430.748C481.744 426.565 490.441 422.37 499.042 418.301C557.803 390.442 630.95 360.737 675.043 378.72C690.656 385.084 701.921 397.294 708.529 414.936C717.999 440.252 718.191 477.389 718.408 513.304C718.667 559.587 718.937 607.444 739.4 629.403C741.742 631.919 744.403 634.118 747.314 635.944C770.264 650.349 805.494 639.069 837.725 625.532C857.496 617.219 878.97 606.556 899.754 596.232C936.183 578.128 973.865 559.42 1005.52 551.617C1010.84 550.296 1016.22 549.261 1021.64 548.516C1081.33 540.552 1122.05 577.605 1149.77 665.154C1156.59 686.68 1162.54 709.977 1168.3 732.507C1182.66 788.661 1197.5 846.752 1227.21 884.038C1244.74 905.923 1268.67 918.874 1296.42 921.492C1319.53 923.678 1344.65 918.829 1371.02 907.283L1372.15 905.421Z" fill="#2F135B"/>
<path d="M1371.58 906.322C1342.82 920.271 1315.55 926.319 1290.67 924.044C1263.53 921.563 1240.21 908.909 1223.24 887.451C1193.71 849.955 1179.46 790.851 1165.68 733.694C1160.16 710.783 1154.45 687.092 1147.84 665.18C1135.52 624.315 1120.58 594.782 1102.19 574.912C1079.79 550.714 1051.58 540.825 1018.37 545.514C1012.85 546.296 1007.38 547.39 1001.99 548.79C969.876 556.984 931.65 576.594 894.669 595.578C873.956 606.202 852.54 617.191 832.811 625.815C796.538 641.665 756.516 654.747 734.713 631.436C714.513 609.789 714.738 561.442 714.954 514.69C715.122 478.217 715.295 440.508 705.953 414.727C699.358 396.549 687.942 384.039 672.023 377.528C627.101 359.224 552.773 390.295 493.037 419.41C484.17 423.731 475.032 428.23 466.228 432.596C398.569 466.035 328.604 500.611 277.163 500.024C264.136 499.877 253.23 497.523 243.848 492.833C200.12 471.064 189.676 397.37 181.265 338.179C172.215 274.525 162.88 208.779 126.359 181.522L125.717 182.545C161.762 209.531 171.057 274.979 180.05 338.353C188.166 395.451 198.178 465.95 238.15 491.04C239.813 492.083 241.528 493.052 243.3 493.931C252.861 498.706 263.934 501.101 277.151 501.254C328.885 501.844 398.977 467.2 466.771 433.727C475.594 429.366 484.713 424.862 493.58 420.54C553.087 391.537 627.094 360.571 671.568 378.696C687.165 385.05 698.352 397.32 704.821 415.158C714.094 440.725 713.91 478.325 713.747 514.699C713.524 561.697 713.306 610.276 733.845 632.26C756.166 656.118 796.661 642.958 833.33 626.93C853.077 618.312 874.522 607.296 895.25 596.664C932.159 577.726 970.328 558.142 1002.31 549.986C1007.66 548.596 1013.08 547.512 1018.56 546.74C1051.81 542.056 1078.89 551.528 1101.3 575.754C1119.57 595.482 1134.41 624.852 1146.69 665.54C1153.28 687.423 1158.99 711.093 1164.51 733.989C1178.32 791.273 1192.6 850.507 1222.29 888.216C1239.48 909.942 1263.09 922.758 1290.58 925.275C1315.17 927.523 1342.06 921.714 1370.4 908.264L1371.58 906.322Z" fill="#2F135B"/>
<path d="M1371.17 906.982C1334.34 926.177 1305.37 929.646 1284.88 927.832C1258 925.446 1234.99 912.925 1218.36 891.617C1188.85 853.708 1175.17 793.465 1161.94 735.2C1156.66 711.921 1151.19 687.846 1144.79 665.565C1132.82 623.88 1118.05 593.757 1099.65 573.475C1077.26 548.807 1048.87 538.799 1015.3 543.726C1009.74 544.554 1004.22 545.697 998.786 547.149C966.381 555.699 927.679 576.169 890.246 595.971C869.554 606.915 848.159 618.23 828.424 627.179C791.668 643.862 751.152 657.713 729.162 634.25C708.907 612.626 709.631 563.621 710.332 516.231C710.887 479.233 711.448 440.978 702.243 414.931C695.825 396.58 684.51 383.981 668.607 377.491C623.325 359.001 548.054 391.376 487.538 421.643C478.427 426.227 469.01 430.981 459.923 435.59C391.877 470.116 321.503 505.831 269.984 505.621C256.846 505.569 245.843 503.235 236.35 498.486C192.514 476.582 182.692 401.591 174.8 341.328C166.594 278.596 158.142 213.881 124.076 185.161L123.429 186.192C157.019 214.659 165.446 279.062 173.592 341.484C181.207 399.676 190.607 471.54 230.783 496.746C232.409 497.767 234.081 498.714 235.807 499.576C245.48 504.409 256.659 506.787 269.992 506.835C321.804 507.048 392.307 471.272 460.486 436.671C469.571 432.066 478.963 427.296 488.076 422.754C548.374 392.6 623.318 360.331 668.149 378.635C683.706 384.992 694.788 397.338 701.087 415.347C710.22 441.19 709.659 479.337 709.111 516.226C708.406 563.857 707.675 613.108 728.263 635.095C750.786 659.119 791.786 645.146 828.927 628.301C848.711 619.354 870.108 608.018 890.812 597.064C928.163 577.285 966.826 556.859 999.099 548.339C1004.49 546.897 1009.96 545.764 1015.48 544.947C1049.1 540.013 1076.33 549.631 1098.73 574.306C1117.01 594.445 1131.7 624.407 1143.61 665.912C1150 688.157 1155.46 712.219 1160.75 735.478C1174.01 793.876 1187.72 854.252 1217.39 892.38C1234.25 913.962 1257.54 926.665 1284.78 929.06C1310.86 931.376 1339.57 924.514 1369.92 908.985L1371.17 906.982Z" fill="#2F135B"/>
<path d="M1370.92 907.373C1331.45 929.419 1300.65 933.505 1279.12 931.64C1252.49 929.343 1229.79 916.941 1213.48 895.785C1184.11 857.619 1171.05 796.508 1158.41 737.415C1153.3 713.52 1148.03 688.813 1141.74 665.959C1130.2 623.506 1115.62 592.772 1097.14 572.028C1074.75 546.904 1046.17 536.771 1012.23 541.942C1006.62 542.805 1001.06 543.996 995.583 545.507C962.895 554.419 923.726 575.749 885.847 596.378C865.173 607.646 843.78 619.291 824.025 628.563C786.814 646.033 745.781 660.719 723.594 637.081C703.27 615.431 704.487 565.684 705.663 517.575C706.577 480.139 707.522 441.426 698.529 415.132C692.232 396.579 680.96 383.876 665.011 377.386C618.652 358.509 538.383 394.875 482.051 423.866C472.201 428.895 462.068 434.159 452.271 439.249C384.328 474.548 314.081 511.037 262.817 511.196C249.568 511.24 238.46 508.919 228.864 504.11C184.874 482.099 175.711 405.778 168.348 344.456C160.937 282.723 153.315 219.08 121.665 189.002L121.01 190.045C152.216 219.9 159.773 283.179 167.144 344.586C174.262 403.869 183.056 477.096 223.42 502.426C225.006 503.421 226.642 504.342 228.328 505.189C238.098 510.083 249.389 512.445 262.834 512.405C314.39 512.242 384.774 475.68 452.841 440.317C462.641 435.223 472.779 429.961 482.617 424.932C538.722 396.041 618.659 359.825 664.568 378.499C680.148 384.871 691.208 397.299 697.384 415.504C706.31 441.597 705.365 480.201 704.45 517.53C703.271 565.88 702.048 615.879 722.713 637.897C724.969 640.304 727.522 642.413 730.313 644.172C753.949 659.008 790.828 645.48 824.557 629.647C844.347 620.357 865.745 608.703 886.445 597.429C924.262 576.835 963.365 555.538 995.919 546.661C1001.35 545.165 1006.86 543.985 1012.43 543.127C1045.94 538.037 1074.15 548.025 1096.24 572.821C1114.58 593.418 1129.09 623.969 1140.57 666.262C1146.84 689.088 1152.13 713.773 1157.26 737.65C1169.92 796.879 1183.01 858.129 1212.54 896.516C1229.08 917.948 1252.08 930.515 1279.05 932.843C1300.41 934.69 1330.81 930.744 1369.63 909.484L1370.92 907.373Z" fill="#2F135B"/>
<path d="M1370.86 907.471C1328.62 932.636 1295.95 937.376 1273.37 935.477C1247 933.252 1224.61 920.97 1208.61 899.94C1179.22 861.301 1166.71 798.932 1154.59 738.615C1149.74 714.444 1144.73 689.451 1138.7 666.32C1127.48 623.012 1113.05 591.692 1094.59 570.573C1072.21 544.978 1043.47 534.73 1009.18 540.124C1003.51 541.033 997.902 542.281 992.381 543.863C959.591 553.045 920.227 575.11 882.158 596.449C861.252 608.167 839.624 620.296 819.627 629.944C784.205 647.209 740.634 663.941 718.028 639.915C697.629 618.241 699.34 567.753 700.988 518.936C702.297 481.043 703.599 441.879 694.806 415.33C688.638 396.607 677.436 383.829 661.512 377.344C614.855 358.354 533.59 396.053 476.548 426.076C466.573 431.332 456.284 436.8 446.334 442.106C377.874 478.591 307.082 516.317 255.649 516.773C242.516 516.93 230.974 514.552 221.373 509.741C177.252 487.623 168.737 409.972 161.895 347.585C155.24 286.878 148.35 224.387 119.109 193.073L118.469 194.092C147.276 225.15 154.079 287.336 160.694 347.701C167.309 408.065 175.488 482.66 216.053 508.122C217.601 509.094 219.198 509.994 220.846 510.824C230.621 515.728 242.332 518.126 255.681 517.986C307.415 517.52 378.314 479.714 446.923 443.18C456.858 437.871 467.145 432.39 477.123 427.164C533.966 397.26 614.878 359.68 661.055 378.488C676.628 384.827 687.596 397.356 693.647 415.722C702.357 442.06 701.037 481.127 699.76 518.898C698.1 567.969 696.386 618.704 717.128 640.753C719.304 643.075 721.769 645.107 724.463 646.8C748.795 662.073 787.843 646.794 820.153 631.046C840.19 621.372 861.821 609.246 882.743 597.521C920.751 576.217 960.053 554.187 992.706 545.043C998.176 543.484 1003.73 542.255 1009.35 541.36C1043.2 536.037 1071.57 546.144 1093.64 571.398C1111.98 592.375 1126.32 623.533 1137.49 666.65C1143.52 689.745 1148.52 714.724 1153.36 738.874C1165.5 799.308 1178.03 861.822 1207.59 900.695C1223.81 921.986 1246.52 934.437 1273.24 936.691C1295.64 938.579 1327.89 933.989 1369.42 909.716L1370.86 907.471Z" fill="#2F135B"/>
<path d="M1370.98 907.275C1325.87 935.811 1291.28 941.266 1267.64 939.319C1241.52 937.168 1219.4 924.982 1203.72 904.122C1174.3 865.011 1162.34 801.392 1150.78 739.868C1146.19 715.407 1141.43 690.145 1135.64 666.733C1120.3 604.64 1097.88 565.793 1067.01 547.988C1045.34 535.469 1019.15 533.529 989.181 542.21C955.969 551.837 915.927 574.874 877.207 597.151C807.949 636.992 742.543 674.616 712.463 642.742C691.996 621.041 694.197 569.817 696.33 520.282C697.97 481.96 699.684 442.311 691.108 415.534C685.07 396.65 673.94 383.791 658.036 377.312C611.088 358.208 528.849 397.261 471.073 428.3C461.116 433.653 450.86 439.249 440.961 444.672C354.276 491.963 264.638 540.871 213.892 515.368C169.6 493.143 161.761 414.161 155.444 350.713C152.124 317.439 148.376 279.694 140.195 248.929C134.26 226.621 126.383 209.592 116.381 197.419L115.683 198.531C142.328 231.419 148.612 294.296 154.238 350.819C157.887 387.486 161.846 422.802 170.106 451.941C178.815 482.697 191.432 502.991 208.572 513.749C210.13 514.728 211.728 515.628 213.365 516.451C264.681 542.239 354.589 493.171 441.54 445.717C451.455 440.304 461.705 434.71 471.647 429.353C529.205 398.427 611.1 359.499 657.57 378.417C673.118 384.768 684.017 397.352 689.939 415.88C698.441 442.468 696.742 481.985 695.097 520.206C692.966 569.981 690.749 621.474 711.565 643.558C725.394 658.23 748.052 659.6 780.826 647.755C809.97 637.249 844.445 617.402 877.818 598.199C916.479 575.954 956.457 552.956 989.53 543.377C1019.17 534.788 1045.03 536.694 1066.41 549.041C1096.95 566.698 1119.21 605.265 1134.46 667.012C1140.23 690.395 1144.99 715.648 1149.56 740.101C1161.16 801.762 1173.15 865.528 1202.73 904.861C1218.65 926.025 1241.06 938.369 1267.53 940.55C1291 942.481 1325.14 937.207 1369.49 909.658L1370.98 907.275Z" fill="#2F135B"/>
</g>
<defs>
<clipPath id="clip0_622_4108">
<rect width="1440" height="452" fill="white" transform="translate(240.298) rotate(32.1159)"/>
</clipPath>
</defs>
</svg>
