<svg width="44" height="44" viewBox="0 0 44 44" fill="none" xmlns="http://www.w3.org/2000/svg">
<path fill-rule="evenodd" clip-rule="evenodd" d="M31.3438 18.2575C34.711 18.2575 37.4406 20.9872 37.4406 24.3543C37.4406 27.7214 34.711 30.451 31.3438 30.451C27.9767 30.451 25.2471 27.7214 25.2471 24.3543C25.2471 20.9872 27.9767 18.2575 31.3438 18.2575ZM29.0459 23.9218L29.9024 25.4053L33.7593 21.5483L34.8226 22.6117L29.5824 27.8518L27.7476 24.6738L29.0459 23.9218Z" fill="#F6BF7F"/>
<path fill-rule="evenodd" clip-rule="evenodd" d="M25.0929 7.37262H28.3965C30.0174 7.37262 31.3436 8.69883 31.3436 10.3198V17.3982C28.9156 17.3982 26.7784 18.6427 25.534 20.5283H9.50673V21.3877H25.0506C24.6255 22.2875 24.3875 23.2931 24.3875 24.3543C24.3875 25.4155 24.6256 26.421 25.0506 27.3209H9.50673V28.1803H25.534C26.7784 30.0659 28.9156 31.3104 31.3436 31.3104V38.3889C31.3436 40.0098 30.0174 41.336 28.3965 41.336H9.50671C7.88576 41.336 6.55957 40.0098 6.55957 38.3889V10.3198C6.55957 8.69883 7.88576 7.37262 9.50671 7.37262H12.8103V8.24327C12.8103 9.81179 14.3285 10.8017 15.7847 10.8017H22.1185C23.5747 10.8017 25.0929 9.81182 25.0929 8.24327V7.37262ZM18.9516 12.1029C19.4671 12.1029 19.8888 12.5246 19.8888 13.0401V14.5129H21.3616C21.8771 14.5129 22.2989 14.9347 22.2989 15.4501C22.2989 15.9656 21.8771 16.3874 21.3616 16.3874H19.8888V17.8602C19.8888 18.3757 19.4671 18.7974 18.9516 18.7974C18.4361 18.7974 18.0144 18.3757 18.0144 17.8602V16.3874H16.5416C16.0261 16.3874 15.6043 15.9656 15.6043 15.4501C15.6043 14.9347 16.0261 14.5129 16.5416 14.5129H18.0144V13.0401C18.0144 12.5246 18.4361 12.1029 18.9516 12.1029ZM9.50673 34.1136H28.3965V34.973H9.50673V34.1136Z" fill="#F6BF7F"/>
<path fill-rule="evenodd" clip-rule="evenodd" d="M15.7847 4.8029H16.2892C16.2892 3.62165 17.4812 2.66406 18.9516 2.66406C20.4221 2.66406 21.6141 3.62165 21.6141 4.8029H22.1185C23.2818 4.8029 24.2336 5.56745 24.2336 6.50197V8.24325C24.2336 9.17775 23.2818 9.94233 22.1185 9.94233H15.7847C14.6215 9.94233 13.6697 9.17775 13.6697 8.24325V6.50197C13.6697 5.56745 14.6215 4.8029 15.7847 4.8029Z" fill="#F6BF7F"/>
</svg>
