<svg width="44" height="44" viewBox="0 0 44 44" fill="none" xmlns="http://www.w3.org/2000/svg">
<g clip-path="url(#clip0_645_4216)">
<path fill-rule="evenodd" clip-rule="evenodd" d="M22 9.98101C23.0144 9.98099 24.006 10.2818 24.8495 10.8453C25.6929 11.4089 26.3503 12.2099 26.7385 13.1471C27.1267 14.0842 27.2283 15.1155 27.0304 16.1104C26.8325 17.1053 26.3441 18.0192 25.6268 18.7365C24.9095 19.4537 23.9956 19.9422 23.0007 20.1401C22.0058 20.338 20.9746 20.2365 20.0374 19.8483C19.1002 19.4601 18.2992 18.8027 17.7357 17.9593C17.1721 17.1158 16.8713 16.1242 16.8713 15.1098C16.8732 13.7502 17.4142 12.4468 18.3756 11.4854C19.337 10.5239 20.6404 9.98294 22 9.98101ZM22 22.301C23.4223 22.3008 24.8126 21.8789 25.9951 21.0885C27.1776 20.2982 28.0992 19.1749 28.6433 17.8609C29.1875 16.5468 29.3297 15.1008 29.0521 13.7059C28.7745 12.3109 28.0895 11.0297 27.0837 10.024C26.0778 9.0184 24.7964 8.33361 23.4014 8.05624C22.0065 7.77887 20.5605 7.92138 19.2465 8.46575C17.9326 9.01013 16.8095 9.93191 16.0194 11.1145C15.2292 12.2972 14.8075 13.6876 14.8076 15.1098C14.8101 17.0165 15.5687 18.8443 16.9171 20.1924C18.2654 21.5404 20.0934 22.2987 22 22.3008V22.301ZM12.7644 5.87199C7.92751 10.7084 7.95192 18.6776 12.8211 24.4087L22 35.2161L31.1793 24.4089C36.0485 18.6776 36.0728 10.7084 31.236 5.87217C28.7849 3.42573 25.4633 2.05173 22.0002 2.05173C18.5371 2.05173 15.2155 3.42573 12.7644 5.87217V5.87199ZM32.0347 36.8095C32.0347 38.0642 31.0738 39.2908 29.3223 40.2642C27.3844 41.343 24.7815 41.9376 22 41.9376C19.2147 41.9376 16.6159 41.3427 14.6782 40.2635C12.9267 39.29 11.9658 38.0635 11.9658 36.8088C11.9658 35.04 13.8875 33.3517 16.9121 32.4131L21.2137 37.4762C21.3106 37.5902 21.4312 37.6818 21.567 37.7446C21.7028 37.8074 21.8506 37.8399 22.0002 37.8399C22.1499 37.8399 22.2977 37.8074 22.4335 37.7446C22.5693 37.6818 22.6899 37.5902 22.7868 37.4762L27.0885 32.4131C30.113 33.3517 32.0348 35.04 32.0348 36.8088L32.0347 36.8095ZM11.2481 25.7444L15.4768 30.7239C12.0022 32.0173 9.90201 34.2666 9.90201 36.8091C9.90201 40.8416 15.2172 44.0003 22.0002 44.0003C28.7832 44.0003 34.0984 40.8416 34.0984 36.8091C34.0984 34.2666 31.9983 32.0173 28.5236 30.7239L32.7524 25.7444C35.3876 22.642 36.8715 18.815 36.9364 14.9662C37.0013 10.9606 35.4971 7.21279 32.6956 4.41364C29.8538 1.58687 26.0085 6.10352e-05 22.0002 6.10352e-05C17.9919 6.10352e-05 14.1466 1.58687 11.3049 4.41364C8.50329 7.21279 6.99939 10.9606 7.06401 14.9662C7.12477 18.815 8.61269 22.6424 11.2481 25.7444Z" fill="#F6BF7F"/>
</g>
<defs>
<clipPath id="clip0_645_4216">
<rect width="44" height="44" fill="white"/>
</clipPath>
</defs>
</svg>
