<svg width="44" height="44" viewBox="0 0 44 44" fill="none" xmlns="http://www.w3.org/2000/svg">
<path d="M17.325 18.4835H16.2714C15.9495 18.4837 15.6409 18.6116 15.4131 18.8391C15.1853 19.0665 15.057 19.375 15.0563 19.6969V20.9413C15.0565 21.2634 15.1846 21.5723 15.4124 21.8001C15.6401 22.0279 15.949 22.1561 16.2711 22.1564H17.325C17.6472 22.1561 17.9561 22.0279 18.1839 21.8001C18.4117 21.5723 18.5398 21.2634 18.5402 20.9413V19.6969C18.5395 19.375 18.4111 19.0665 18.1834 18.8391C17.9556 18.6116 17.6469 18.4837 17.325 18.4835ZM17.8527 20.9413C17.8525 21.0812 17.7968 21.2153 17.6979 21.3142C17.599 21.4131 17.4649 21.4687 17.325 21.4689H16.2714C16.1315 21.4688 15.9974 21.4132 15.8984 21.3143C15.7995 21.2153 15.7439 21.0812 15.7438 20.9413V19.6969C15.744 19.5571 15.7996 19.4231 15.8984 19.3242C15.9973 19.2254 16.1313 19.1698 16.2711 19.1696H17.325C17.4648 19.1699 17.5987 19.2255 17.6975 19.3244C17.7962 19.4232 17.8518 19.5572 17.852 19.6969L17.8527 20.9413Z" fill="#F6BF7F"/>
<path d="M11.471 23.8799H10.4184C10.0964 23.8802 9.78773 24.0081 9.55994 24.2357C9.33216 24.4632 9.20388 24.7718 9.20325 25.0937V26.3367C9.20361 26.6589 9.33175 26.9678 9.55956 27.1956C9.78737 27.4234 10.0962 27.5515 10.4184 27.5519H11.471C11.7931 27.5515 12.102 27.4234 12.3298 27.1956C12.5576 26.9678 12.6858 26.6589 12.6861 26.3367V25.0937C12.6854 24.7718 12.5571 24.4633 12.3293 24.2358C12.1016 24.0083 11.7929 23.8803 11.471 23.8799ZM11.9986 26.3378C11.9984 26.4776 11.9428 26.6117 11.8439 26.7107C11.745 26.8096 11.6109 26.8652 11.471 26.8654H10.4184C10.2785 26.8652 10.1444 26.8096 10.0455 26.7107C9.94658 26.6117 9.89093 26.4776 9.89075 26.3378V25.0937C9.89093 24.9539 9.94659 24.8198 10.0455 24.7209C10.1444 24.6221 10.2785 24.5665 10.4184 24.5664H11.471C11.6108 24.5665 11.7449 24.6221 11.8439 24.7209C11.9428 24.8198 11.9984 24.9539 11.9986 25.0937V26.3378Z" fill="#F6BF7F"/>
<path d="M23.0601 23.8799H22.0072C21.6853 23.8803 21.3766 24.0083 21.1489 24.2358C20.9212 24.4633 20.793 24.7718 20.7924 25.0937V26.3367C20.7926 26.6589 20.9207 26.9677 21.1484 27.1955C21.3762 27.4234 21.685 27.5515 22.0072 27.5519H23.0601C23.3822 27.5515 23.6911 27.4234 23.9189 27.1956C24.1467 26.9678 24.2749 26.6589 24.2752 26.3367V25.0937C24.2745 24.7718 24.1462 24.4633 23.9184 24.2358C23.6907 24.0083 23.382 23.8803 23.0601 23.8799ZM23.5877 26.3378C23.5876 26.4776 23.5319 26.6117 23.433 26.7107C23.3341 26.8096 23.2 26.8652 23.0601 26.8654H22.0072C21.8673 26.8651 21.7333 26.8094 21.6345 26.7105C21.5356 26.6116 21.48 26.4776 21.4799 26.3378V25.0937C21.48 24.9539 21.5357 24.8199 21.6345 24.7211C21.7334 24.6222 21.8674 24.5666 22.0072 24.5664H23.0601C23.1999 24.5665 23.334 24.6221 23.433 24.7209C23.5319 24.8198 23.5876 24.9539 23.5877 25.0937V26.3378Z" fill="#F6BF7F"/>
<path d="M29.2235 27.553C29.5456 27.5526 29.8545 27.4244 30.0822 27.1966C30.31 26.9688 30.438 26.6599 30.4383 26.3378V25.0938C30.438 24.7717 30.3099 24.4629 30.0821 24.2352C29.8544 24.0074 29.5456 23.8793 29.2235 23.879H28.1703C27.8482 23.8793 27.5394 24.0074 27.3117 24.2352C27.0839 24.4629 26.9558 24.7717 26.9554 25.0938V26.3368C26.9557 26.6589 27.0838 26.9678 27.3115 27.1956C27.5393 27.4234 27.8481 27.5516 28.1703 27.5519L29.2235 27.553ZM27.6423 26.3378V25.0938C27.6424 24.954 27.6981 24.82 27.7969 24.7211C27.8958 24.6223 28.0298 24.5666 28.1696 24.5665H29.2228C29.3627 24.5665 29.4969 24.622 29.5959 24.7209C29.6949 24.8197 29.7506 24.9539 29.7508 25.0938V26.3368C29.7506 26.4766 29.695 26.6107 29.5962 26.7096C29.4974 26.8085 29.3633 26.8642 29.2235 26.8644H28.1703C28.0306 26.8643 27.8967 26.8087 27.7978 26.71C27.699 26.6113 27.6433 26.4775 27.6429 26.3378H27.6423Z" fill="#F6BF7F"/>
<path d="M23.1189 18.4835H22.066C21.3949 18.4835 20.8508 19.0275 20.8508 19.6986V20.9413C20.8508 21.6124 21.3949 22.1564 22.066 22.1564H23.1189C23.79 22.1564 24.334 21.6124 24.334 20.9413V19.6986C24.334 19.0275 23.79 18.4835 23.1189 18.4835Z" fill="#F6BF7F"/>
<path d="M28.2294 18.4835H29.2823C29.6043 18.4835 29.9131 18.6113 30.1409 18.8388C30.3686 19.0663 30.4968 19.3749 30.4972 19.6969V20.9413C30.4972 21.2636 30.3691 21.5726 30.1412 21.8005C29.9134 22.0284 29.6043 22.1564 29.282 22.1564H28.2291C27.9069 22.1564 27.5979 22.0284 27.3701 21.8006C27.1423 21.5728 27.0143 21.2638 27.0143 20.9416V19.6969C27.0147 19.3749 27.143 19.0663 27.3708 18.8388C27.5986 18.6112 27.9075 18.4835 28.2294 18.4835Z" fill="#F6BF7F"/>
<path d="M16.2126 23.8799H17.2655C17.5876 23.8799 17.8965 24.0077 18.1244 24.2353C18.3522 24.4629 18.4804 24.7717 18.4807 25.0937V26.3367C18.4807 26.659 18.3527 26.9681 18.1248 27.196C17.8969 27.4239 17.5878 27.5519 17.2655 27.5519H16.2126C15.8906 27.5519 15.5818 27.424 15.354 27.1964C15.1262 26.9688 14.9981 26.6601 14.9978 26.3381V25.0937C14.9981 24.7717 15.1262 24.463 15.354 24.2354C15.5818 24.0078 15.8906 23.8799 16.2126 23.8799Z" fill="#F6BF7F"/>
<path d="M10.4771 18.4835H11.53C11.852 18.4835 12.1608 18.6113 12.3885 18.8388C12.6163 19.0663 12.7445 19.3749 12.7448 19.6969V20.9413C12.7448 21.2635 12.6168 21.5725 12.389 21.8003C12.1612 22.0281 11.8522 22.1561 11.53 22.1561H10.4771C10.1548 22.1561 9.84576 22.0281 9.61787 21.8002C9.38999 21.5723 9.26196 21.2632 9.26196 20.9409V19.6969C9.26242 19.3749 9.39064 19.0663 9.61848 18.8388C9.84632 18.6112 10.1551 18.4835 10.4771 18.4835Z" fill="#F6BF7F"/>
<path d="M35.0993 26.796V12.1096C35.0984 11.2894 34.7721 10.503 34.1921 9.923C33.6121 9.34301 32.8258 9.01677 32.0055 9.01586H30.525V8.05336C30.5244 7.59304 30.3413 7.15172 30.0158 6.82623C29.6903 6.50073 29.249 6.31762 28.7887 6.31708H28.72C28.2595 6.3179 27.8183 6.5013 27.4929 6.82705C27.1675 7.15281 26.9846 7.59432 26.9844 8.05473V9.01723H12.7187V8.05473C12.7182 7.59441 12.5351 7.1531 12.2096 6.8276C11.8841 6.5021 11.4428 6.319 10.9825 6.31845H10.9137C10.4535 6.31927 10.0125 6.50248 9.68712 6.82794C9.36179 7.1534 9.17875 7.59456 9.17812 8.05473V9.01723H7.72302C6.90279 9.01814 6.11641 9.34438 5.53642 9.92438C4.95642 10.5044 4.63018 11.2907 4.62927 12.111V29.3844C4.63018 30.2047 4.95642 30.991 5.53642 31.571C6.11641 32.151 6.90279 32.4773 7.72302 32.4782H28.3539C28.4114 33.5004 28.7525 34.4865 29.3389 35.3258C29.9253 36.1651 30.7339 36.8245 31.674 37.2302C32.6141 37.6358 33.6486 37.7716 34.6615 37.6223C35.6745 37.473 36.6258 37.0446 37.409 36.3851C38.1921 35.7255 38.7761 34.8609 39.0955 33.8881C39.4149 32.9153 39.4571 31.8728 39.2173 30.8774C38.9775 29.882 38.4652 28.973 37.7379 28.2524C37.0105 27.5318 36.0969 27.0279 35.0993 26.7974V26.796ZM27.6719 8.05473C27.6722 7.77663 27.7829 7.51003 27.9796 7.31341C28.1763 7.1168 28.4429 7.00623 28.721 7.00595H28.7897C29.0676 7.0065 29.334 7.1172 29.5304 7.3138C29.7268 7.51039 29.8372 7.77684 29.8375 8.05473V10.3297C29.8371 10.6074 29.7267 10.8738 29.5304 11.0703C29.3341 11.2668 29.0679 11.3775 28.7901 11.3781H28.7213C28.4432 11.3779 28.1766 11.2674 27.9798 11.0709C27.7831 10.8743 27.6723 10.6078 27.6719 10.3297V8.05473ZM9.86562 8.05473C9.86598 7.77663 9.97664 7.51003 10.1733 7.31341C10.37 7.1168 10.6366 7.00623 10.9147 7.00595H10.9835C11.2614 7.0065 11.5277 7.1172 11.7241 7.3138C11.9205 7.51039 12.031 7.77684 12.0312 8.05473V10.3297C12.0309 10.6075 11.9204 10.8739 11.724 11.0704C11.5276 11.2669 11.2613 11.3776 10.9835 11.3781H10.9147C10.6367 11.3778 10.3701 11.2673 10.1734 11.0708C9.97677 10.8742 9.86607 10.6077 9.86562 10.3297V8.05473ZM28.3573 31.7893H7.72302C7.08507 31.7886 6.47345 31.5348 6.02235 31.0837C5.57125 30.6326 5.3175 30.021 5.31677 29.383V14.7125H34.4118V26.677C33.6762 26.6024 32.933 26.6765 32.2267 26.895C31.5203 27.1135 30.8651 27.472 30.3002 27.949C29.7353 28.426 29.2721 29.0119 28.9383 29.6716C28.6045 30.3314 28.4069 31.0516 28.3573 31.7893ZM35.0212 33.1375C34.9629 33.2075 34.8792 33.2515 34.7884 33.2599C34.6977 33.2682 34.6073 33.2401 34.5372 33.1818L33.6346 32.4311C33.6301 32.4276 33.6287 32.4225 33.6246 32.4187C33.6077 32.4018 33.5928 32.3831 33.5799 32.363C33.5669 32.3469 33.5554 32.3296 33.5455 32.3115C33.5384 32.2926 33.5328 32.2731 33.5287 32.2534C33.5213 32.2301 33.5165 32.2061 33.5142 32.1819C33.5142 32.1764 33.5111 32.1719 33.5111 32.1667V29.9564C33.5111 29.8653 33.5474 29.7778 33.6118 29.7134C33.6763 29.6489 33.7637 29.6127 33.8549 29.6127C33.9461 29.6127 34.0335 29.6489 34.098 29.7134C34.1624 29.7778 34.1986 29.8653 34.1986 29.9564V32.0031L34.9776 32.6511C35.0126 32.68 35.0415 32.7156 35.0626 32.7558C35.0838 32.796 35.0967 32.84 35.1008 32.8852C35.1049 32.9304 35.0999 32.976 35.0863 33.0193C35.0726 33.0626 35.0505 33.1028 35.0212 33.1375Z" fill="#F6BF7F"/>
</svg>
