<svg width="295" height="594" viewBox="0 0 295 594" fill="none" xmlns="http://www.w3.org/2000/svg">
<path d="M245.967 0H48.9771C23.3042 0 2.49219 20.7809 2.49219 46.4155V547.584C2.49219 573.219 23.3042 594 48.9771 594H245.967C271.64 594 292.452 573.219 292.452 547.584V46.4155C292.452 20.7809 271.64 0 245.967 0Z" fill="#C6884F"/>
<g style="mix-blend-mode:screen">
<path d="M245.608 1.38281H49.2825C43.3114 1.38281 37.3988 2.55738 31.8824 4.83943C26.366 7.12147 21.3539 10.4663 17.1324 14.6828C12.9108 18.8994 9.56253 23.905 7.27876 29.4139C4.99498 34.9227 3.82045 40.8269 3.82227 46.789V547.225C3.82227 559.264 8.61183 570.81 17.1373 579.322C25.6627 587.835 37.2257 592.617 49.2825 592.617H245.608C257.664 592.617 269.227 587.835 277.753 579.322C286.278 570.81 291.068 559.264 291.068 547.225V46.789C291.07 40.8269 289.895 34.9227 287.611 29.4139C285.328 23.905 281.979 18.8994 277.758 14.6828C273.536 10.4663 268.524 7.12147 263.008 4.83943C257.491 2.55738 251.579 1.38281 245.608 1.38281ZM289.683 546.852C289.683 552.68 288.533 558.452 286.3 563.836C284.066 569.221 280.792 574.114 276.664 578.235C272.537 582.357 267.637 585.626 262.244 587.856C256.851 590.087 251.071 591.235 245.234 591.235H49.6979C37.9116 591.231 26.6093 586.554 18.2764 578.23C9.94352 569.907 5.26238 558.621 5.26238 546.852V47.1485C5.26238 35.3798 9.94352 24.0929 18.2764 15.7698C26.6093 7.4468 37.9116 2.76913 49.6979 2.76546H245.234C251.071 2.76546 256.851 3.91347 262.244 6.14392C267.637 8.37438 272.537 11.6436 276.664 15.765C280.792 19.8863 284.066 24.7791 286.3 30.1639C288.533 35.5487 289.683 41.32 289.683 47.1485V546.852Z" fill="#706F6F"/>
</g>
<path d="M244.804 4.53516H50.1544C26.5463 4.53516 7.4082 23.6447 7.4082 47.2175V546.783C7.4082 570.355 26.5463 589.465 50.1544 589.465H244.804C268.412 589.465 287.55 570.355 287.55 546.783V47.2175C287.55 23.6447 268.412 4.53516 244.804 4.53516Z" fill="#1D1D1B"/>
<path d="M294.154 151.76H292.451V223.353H294.154V151.76Z" fill="url(#paint0_linear_670_4263)"/>
<path d="M294.141 223.367V151.787L294.999 152.713C294.57 160.346 294.598 214.836 294.999 222.44L294.141 223.367Z" fill="url(#paint1_linear_670_4263)"/>
<path d="M1.45368 136.703H0.484375V182.054H1.45368V136.703Z" fill="url(#paint2_linear_670_4263)"/>
<path d="M0.484638 182.053V136.716L0 137.297C0.235402 142.136 0.221555 176.647 0 181.473L0.484638 182.053Z" fill="url(#paint3_linear_670_4263)"/>
<path d="M2.49166 136.703H1.45312V182.054H2.49166V136.703Z" fill="url(#paint4_linear_670_4263)"/>
<path d="M1.45368 193.751H0.484375V239.102H1.45368V193.751Z" fill="url(#paint5_linear_670_4263)"/>
<path d="M0.484638 239.115V193.764L0 194.359C0.235402 199.184 0.221555 233.709 0 238.521L0.484638 239.115Z" fill="url(#paint6_linear_670_4263)"/>
<path d="M2.49166 193.765H1.45312V239.116H2.49166V193.765Z" fill="url(#paint7_linear_670_4263)"/>
<path d="M1.45368 93.8542H0.484375V117.138H1.45368V93.8542Z" fill="url(#paint8_linear_670_4263)"/>
<path d="M0.484638 117.138V93.8682L0 94.4212C0.235402 98.984 0.221555 112.022 0 116.544L0.484638 117.138Z" fill="url(#paint9_linear_670_4263)"/>
<path d="M2.49166 93.8542H1.45312V117.138H2.49166V93.8542Z" fill="url(#paint10_linear_670_4263)"/>
<path d="M169.378 41.5623H123.045C121.806 41.5623 120.578 41.3183 119.433 40.8442C118.288 40.3702 117.248 39.6754 116.372 38.7996C115.497 37.9238 114.802 36.8841 114.329 35.7401C113.856 34.5962 113.614 33.3703 113.615 32.1326C113.61 30.8926 113.85 29.6638 114.321 28.5166C114.793 27.3694 115.486 26.3265 116.363 25.4478C117.239 24.569 118.28 23.8718 119.427 23.396C120.574 22.9202 121.803 22.6753 123.045 22.6753H169.378C171.879 22.6753 174.277 23.6673 176.046 25.4331C177.814 27.1989 178.808 29.5939 178.808 32.0911C178.815 33.3323 178.577 34.5626 178.106 35.7114C177.635 36.8602 176.942 37.9047 176.065 38.7849C175.189 39.6651 174.147 40.3636 172.999 40.8403C171.852 41.3169 170.621 41.5623 169.378 41.5623Z" fill="#1D1D1B"/>
<path d="M166.761 36.253C169.04 36.253 170.888 34.4083 170.888 32.1327C170.888 29.8572 169.04 28.0125 166.761 28.0125C164.482 28.0125 162.635 29.8572 162.635 32.1327C162.635 34.4083 164.482 36.253 166.761 36.253Z" fill="url(#paint11_linear_670_4263)"/>
<path d="M166.762 34.4832C168.062 34.4832 169.116 33.4309 169.116 32.1327C169.116 30.8346 168.062 29.7822 166.762 29.7822C165.462 29.7822 164.408 30.8346 164.408 32.1327C164.408 33.4309 165.462 34.4832 166.762 34.4832Z" fill="url(#paint12_linear_670_4263)"/>
<path d="M168.824 32.1327C168.826 32.5408 168.708 32.9404 168.483 33.281C168.258 33.6216 167.936 33.8879 167.56 34.0459C167.183 34.204 166.768 34.2467 166.366 34.1688C165.965 34.0909 165.596 33.8958 165.307 33.6082C165.017 33.3207 164.819 32.9536 164.738 32.5536C164.657 32.1536 164.697 31.7387 164.853 31.3614C165.009 30.9842 165.273 30.6616 165.613 30.4346C165.952 30.2076 166.352 30.0864 166.76 30.0864C167.305 30.0864 167.828 30.3016 168.215 30.6849C168.601 31.0683 168.82 31.5888 168.824 32.1327Z" fill="url(#paint13_linear_670_4263)"/>
<path style="mix-blend-mode:multiply" d="M168.824 32.1327C168.826 32.5408 168.708 32.9404 168.483 33.281C168.258 33.6216 167.936 33.8879 167.56 34.0459C167.183 34.204 166.768 34.2467 166.366 34.1688C165.965 34.0909 165.596 33.8958 165.307 33.6082C165.017 33.3207 164.819 32.9536 164.738 32.5536C164.657 32.1536 164.697 31.7387 164.853 31.3614C165.009 30.9842 165.273 30.6616 165.613 30.4346C165.952 30.2076 166.352 30.0864 166.76 30.0864C167.305 30.0864 167.828 30.3016 168.215 30.6849C168.601 31.0683 168.82 31.5888 168.824 32.1327Z" fill="url(#paint14_radial_670_4263)"/>
<path style="mix-blend-mode:screen" d="M168.63 33.2113C168.63 33.017 168.553 32.8306 168.415 32.6931C168.277 32.5557 168.091 32.4785 167.896 32.4785C167.701 32.4785 167.515 32.5557 167.377 32.6931C167.239 32.8306 167.162 33.017 167.162 33.2113C167.162 33.4057 167.239 33.5921 167.377 33.7295C167.515 33.8669 167.701 33.9441 167.896 33.9441C168.091 33.9441 168.277 33.8669 168.415 33.7295C168.553 33.5921 168.63 33.4057 168.63 33.2113Z" fill="url(#paint15_radial_670_4263)"/>
<defs>
<linearGradient id="paint0_linear_670_4263" x1="293.296" y1="151.774" x2="293.296" y2="223.367" gradientUnits="userSpaceOnUse">
<stop stop-color="#68595F"/>
<stop offset="0.02" stop-color="#896E80"/>
<stop offset="0.04" stop-color="#5E3B5B"/>
<stop offset="0.08" stop-color="#2B1D2A"/>
<stop offset="0.11" stop-color="#704A6A"/>
<stop offset="0.9" stop-color="#615060"/>
<stop offset="0.94" stop-color="#2B1D2A"/>
<stop offset="0.96" stop-color="#5E3B5B"/>
<stop offset="0.98" stop-color="#845675"/>
<stop offset="1" stop-color="#5B4A5C"/>
</linearGradient>
<linearGradient id="paint1_linear_670_4263" x1="294.57" y1="151.787" x2="294.57" y2="223.367" gradientUnits="userSpaceOnUse">
<stop stop-color="#676067"/>
<stop offset="0.06" stop-color="#654E63"/>
<stop offset="0.19" stop-color="#786F77"/>
<stop offset="0.81" stop-color="#786F77"/>
<stop offset="0.92" stop-color="#654E63"/>
<stop offset="1" stop-color="#676067"/>
</linearGradient>
<linearGradient id="paint2_linear_670_4263" x1="0.969025" y1="136.703" x2="0.969025" y2="182.054" gradientUnits="userSpaceOnUse">
<stop stop-color="#68595F"/>
<stop offset="0.02" stop-color="#896E80"/>
<stop offset="0.04" stop-color="#5E3B5B"/>
<stop offset="0.08" stop-color="#2D1E2C"/>
<stop offset="0.11" stop-color="#704A6A"/>
<stop offset="0.9" stop-color="#615060"/>
<stop offset="0.94" stop-color="#2D1E2C"/>
<stop offset="0.96" stop-color="#5E3B5B"/>
<stop offset="0.98" stop-color="#845675"/>
<stop offset="1" stop-color="#5B4A5C"/>
</linearGradient>
<linearGradient id="paint3_linear_670_4263" x1="0.235395" y1="136.716" x2="0.235395" y2="182.053" gradientUnits="userSpaceOnUse">
<stop stop-color="#676067"/>
<stop offset="0.06" stop-color="#654E63"/>
<stop offset="0.19" stop-color="#786F77"/>
<stop offset="0.81" stop-color="#786F77"/>
<stop offset="0.92" stop-color="#654E63"/>
<stop offset="1" stop-color="#676067"/>
</linearGradient>
<linearGradient id="paint4_linear_670_4263" x1="1.96547" y1="182.067" x2="1.96547" y2="136.703" gradientUnits="userSpaceOnUse">
<stop stop-color="#68595F"/>
<stop offset="0.05" stop-color="#2D1E2C"/>
<stop offset="0.52" stop-color="#5E3B5B"/>
<stop offset="0.96" stop-color="#2D1E2C"/>
<stop offset="1" stop-color="#5B4A5C"/>
</linearGradient>
<linearGradient id="paint5_linear_670_4263" x1="0.969025" y1="193.765" x2="0.969025" y2="239.115" gradientUnits="userSpaceOnUse">
<stop stop-color="#68595F"/>
<stop offset="0.02" stop-color="#896E80"/>
<stop offset="0.04" stop-color="#5E3B5B"/>
<stop offset="0.08" stop-color="#2D1E2C"/>
<stop offset="0.11" stop-color="#704A6A"/>
<stop offset="0.9" stop-color="#615060"/>
<stop offset="0.94" stop-color="#2D1E2C"/>
<stop offset="0.96" stop-color="#5E3B5B"/>
<stop offset="0.98" stop-color="#845675"/>
<stop offset="1" stop-color="#5B4A5C"/>
</linearGradient>
<linearGradient id="paint6_linear_670_4263" x1="0.235395" y1="193.764" x2="0.235395" y2="239.115" gradientUnits="userSpaceOnUse">
<stop stop-color="#676067"/>
<stop offset="0.06" stop-color="#654E63"/>
<stop offset="0.19" stop-color="#786F77"/>
<stop offset="0.81" stop-color="#786F77"/>
<stop offset="0.92" stop-color="#654E63"/>
<stop offset="1" stop-color="#676067"/>
</linearGradient>
<linearGradient id="paint7_linear_670_4263" x1="1.96547" y1="239.116" x2="1.96547" y2="193.765" gradientUnits="userSpaceOnUse">
<stop stop-color="#68595F"/>
<stop offset="0.05" stop-color="#2D1E2C"/>
<stop offset="0.52" stop-color="#5E3B5B"/>
<stop offset="0.96" stop-color="#2D1E2C"/>
<stop offset="1" stop-color="#5B4A5C"/>
</linearGradient>
<linearGradient id="paint8_linear_670_4263" x1="0.969026" y1="93.8542" x2="0.969026" y2="117.124" gradientUnits="userSpaceOnUse">
<stop stop-color="#68595F"/>
<stop offset="0.02" stop-color="#896E80"/>
<stop offset="0.04" stop-color="#5E3B5B"/>
<stop offset="0.08" stop-color="#2D1E2C"/>
<stop offset="0.11" stop-color="#704A6A"/>
<stop offset="0.9" stop-color="#615060"/>
<stop offset="0.94" stop-color="#2D1E2C"/>
<stop offset="0.96" stop-color="#5E3B5B"/>
<stop offset="0.98" stop-color="#845675"/>
<stop offset="1" stop-color="#5B4A5C"/>
</linearGradient>
<linearGradient id="paint9_linear_670_4263" x1="0.235396" y1="93.8682" x2="0.235396" y2="117.138" gradientUnits="userSpaceOnUse">
<stop stop-color="#676067"/>
<stop offset="0.06" stop-color="#654E63"/>
<stop offset="0.19" stop-color="#786F77"/>
<stop offset="0.81" stop-color="#786F77"/>
<stop offset="0.92" stop-color="#654E63"/>
<stop offset="1" stop-color="#676067"/>
</linearGradient>
<linearGradient id="paint10_linear_670_4263" x1="1.96547" y1="117.138" x2="1.96547" y2="93.8542" gradientUnits="userSpaceOnUse">
<stop stop-color="#68595F"/>
<stop offset="0.05" stop-color="#2D1E2C"/>
<stop offset="0.52" stop-color="#5E3B5B"/>
<stop offset="0.96" stop-color="#2D1E2C"/>
<stop offset="1" stop-color="#5B4A5C"/>
</linearGradient>
<linearGradient id="paint11_linear_670_4263" x1="166.761" y1="35.9903" x2="166.761" y2="27.888" gradientUnits="userSpaceOnUse">
<stop stop-color="#666666"/>
<stop offset="1" stop-color="#010104"/>
</linearGradient>
<linearGradient id="paint12_linear_670_4263" x1="166.762" y1="29.9205" x2="166.762" y2="34.5524" gradientUnits="userSpaceOnUse">
<stop stop-color="#0B131C"/>
<stop offset="1" stop-color="#354039"/>
</linearGradient>
<linearGradient id="paint13_linear_670_4263" x1="168.214" y1="33.5984" x2="165.311" y2="30.6766" gradientUnits="userSpaceOnUse">
<stop stop-color="#231F20"/>
<stop offset="0.08" stop-color="#222326"/>
<stop offset="0.2" stop-color="#1F2C37"/>
<stop offset="0.33" stop-color="#1A3D54"/>
<stop offset="0.47" stop-color="#13537C"/>
<stop offset="0.62" stop-color="#0B71AE"/>
<stop offset="0.78" stop-color="#0095EE"/>
<stop offset="0.8" stop-color="#0488D6"/>
<stop offset="0.84" stop-color="#0D689F"/>
<stop offset="0.88" stop-color="#154E72"/>
<stop offset="0.91" stop-color="#1B394E"/>
<stop offset="0.95" stop-color="#1F2B35"/>
<stop offset="0.98" stop-color="#222225"/>
<stop offset="1" stop-color="#231F20"/>
</linearGradient>
<radialGradient id="paint14_radial_670_4263" cx="0" cy="0" r="1" gradientUnits="userSpaceOnUse" gradientTransform="translate(166.76 32.1327) scale(2.06322 2.06015)">
<stop stop-color="#231F20"/>
<stop offset="0.2" stop-color="#175168"/>
<stop offset="0.38" stop-color="#0D78A2"/>
<stop offset="0.54" stop-color="#0695CB"/>
<stop offset="0.66" stop-color="#02A7E5"/>
<stop offset="0.73" stop-color="#00ADEE"/>
<stop offset="0.76" stop-color="#02A6E4"/>
<stop offset="0.81" stop-color="#0693C8"/>
<stop offset="0.87" stop-color="#0E749C"/>
<stop offset="0.94" stop-color="#184A5F"/>
<stop offset="1" stop-color="#231F20"/>
</radialGradient>
<radialGradient id="paint15_radial_670_4263" cx="0" cy="0" r="1" gradientUnits="userSpaceOnUse" gradientTransform="translate(167.896 33.2113) scale(0.733898 0.732805)">
<stop stop-color="#CCCCCC"/>
<stop offset="0.02" stop-color="#C4C4C4"/>
<stop offset="0.22" stop-color="#898989"/>
<stop offset="0.41" stop-color="#585858"/>
<stop offset="0.59" stop-color="#323232"/>
<stop offset="0.75" stop-color="#161616"/>
<stop offset="0.89" stop-color="#060606"/>
<stop offset="1"/>
</radialGradient>
</defs>
</svg>
